<svg xmlns="http://www.w3.org/2000/svg" xmlns:xlink="http://www.w3.org/1999/xlink" width="128" zoomAndPan="magnify" viewBox="0 0 96 95.999999" height="128" preserveAspectRatio="xMidYMid meet" version="1.0"><defs><clipPath id="id1"><path d="M 2 26.492188 L 94 26.492188 L 94 69.242188 L 2 69.242188 Z M 2 26.492188 " clip-rule="nonzero"/></clipPath></defs><g clip-path="url(#id1)"><path fill="#00979c" d="M 70.167969 69.101562 C 64.371094 69.101562 59.394531 67.132812 55.054688 63.195312 C 52.359375 60.75 50.140625 57.75 48.097656 54.628906 C 46.054688 57.722656 43.832031 60.746094 41.136719 63.195312 C 36.449219 67.457031 31.078125 69.375 24.691406 69.066406 C 12.585938 69.019531 2.730469 59.519531 2.730469 47.851562 C 2.730469 36.152344 12.640625 26.632812 24.847656 26.632812 C 26.429688 26.605469 27.996094 26.730469 29.550781 27.011719 C 31.109375 27.289062 32.621094 27.714844 34.09375 28.289062 C 35.566406 28.863281 36.964844 29.574219 38.296875 30.421875 C 39.628906 31.265625 40.863281 32.234375 42.003906 33.320312 C 44.34375 35.488281 46.324219 37.992188 48.128906 40.613281 C 49.929688 37.992188 51.910156 35.484375 54.253906 33.320312 C 55.390625 32.234375 56.625 31.265625 57.957031 30.421875 C 59.289062 29.574219 60.6875 28.863281 62.160156 28.289062 C 63.632812 27.714844 65.144531 27.289062 66.703125 27.011719 C 68.257812 26.730469 69.828125 26.605469 71.40625 26.632812 C 83.589844 26.632812 93.523438 36.152344 93.523438 47.851562 C 93.523438 59.519531 83.667969 69.019531 71.535156 69.070312 C 71.097656 69.089844 70.660156 69.101562 70.226562 69.101562 Z M 52.53125 47.570312 C 54.949219 51.460938 57.292969 55.078125 60.152344 57.679688 C 63.378906 60.613281 66.78125 61.816406 71.175781 61.617188 L 71.375 61.609375 C 79.390625 61.609375 85.914062 55.421875 85.914062 47.886719 C 85.914062 40.347656 79.390625 34.160156 71.375 34.160156 C 69.136719 34.109375 66.976562 34.488281 64.890625 35.300781 C 62.808594 36.113281 60.964844 37.292969 59.363281 38.84375 C 56.777344 41.226562 54.640625 44.285156 52.535156 47.605469 Z M 24.847656 34.125 C 16.832031 34.125 10.304688 40.3125 10.304688 47.847656 C 10.304688 55.386719 16.828125 61.574219 24.847656 61.574219 L 25.046875 61.578125 C 29.441406 61.808594 32.84375 60.601562 36.066406 57.640625 C 38.925781 55.042969 41.273438 51.453125 43.691406 47.535156 C 41.578125 44.214844 39.445312 41.15625 36.863281 38.769531 C 33.402344 35.578125 29.582031 34.085938 24.847656 34.085938 Z M 72.378906 45.132812 L 72.378906 41.070312 L 68.117188 41.070312 L 68.117188 45.132812 L 64.023438 45.132812 L 64.023438 49.339844 L 68.117188 49.339844 L 68.117188 53.429688 L 72.378906 53.429688 L 72.378906 49.339844 L 76.472656 49.339844 L 76.472656 45.132812 L 72.378906 45.132812 M 18.6875 45.054688 L 32.144531 45.054688 L 32.144531 49.394531 L 18.6875 49.394531 Z M 18.6875 45.054688 " fill-opacity="1" fill-rule="nonzero"/></g></svg>