<svg xmlns="http://www.w3.org/2000/svg" xmlns:xlink="http://www.w3.org/1999/xlink" width="128" zoomAndPan="magnify" viewBox="0 0 96 95.999999" height="128" preserveAspectRatio="xMidYMid meet" version="1.0"><defs><clipPath id="id1"><path d="M 6.171875 18.300781 L 90 18.300781 L 90 77.550781 L 6.171875 77.550781 Z M 6.171875 18.300781 " clip-rule="nonzero"/></clipPath></defs><path fill="#373837" d="M 59.191406 76.15625 C 66.414062 75.785156 74.445312 76.519531 81.679688 76.660156 C 83.421875 76.691406 85.398438 76.609375 86.550781 75.3125 C 87.230469 74.542969 87.472656 73.492188 87.652344 72.484375 C 87.988281 70.578125 88.355469 68.660156 88.375 66.730469 C 88.527344 52.839844 89.085938 36.800781 88.527344 22.855469 C 88.496094 22.054688 88.242188 21.230469 87.71875 20.621094 C 87.109375 19.917969 86.140625 19.65625 85.21875 19.511719 C 82.628906 19.097656 78.4375 19.71875 75.816406 19.695312 C 60.085938 19.5625 40.429688 19.253906 22.953125 19.863281 C 19.828125 19.972656 16.015625 19.800781 12.894531 20.003906 C 12.121094 20.054688 11.320312 20.113281 10.644531 20.496094 C 9.0625 21.386719 8.882812 23.546875 8.917969 25.355469 C 9.152344 38.289062 10.324219 53.78125 8.117188 66.53125 C 7.746094 68.664062 7.304688 70.980469 8.328125 72.890625 C 9.535156 75.140625 12.335938 75.984375 14.882812 76.265625 C 17.914062 76.605469 20.976562 76.445312 24.023438 76.289062 C 35.546875 75.691406 47.667969 76.75 59.191406 76.15625 Z M 59.191406 76.15625 " fill-opacity="1" fill-rule="nonzero"/><path fill="#73a1b2" d="M 88.523438 30.984375 C 81.183594 30.425781 73.796875 30.421875 66.453125 30.980469 C 63.761719 31.1875 61.078125 31.464844 58.382812 31.605469 C 55.328125 31.769531 51.96875 31.167969 48.910156 31.15625 C 35.789062 31.101562 22.496094 30.617188 9.375 30.5625 L 8.933594 24.265625 C 8.933594 24.265625 7.976562 20.046875 13.453125 19.972656 C 18.925781 19.902344 53.902344 19.511719 53.902344 19.511719 L 84.351562 19.511719 C 84.351562 19.511719 88.355469 18.667969 88.527344 23.695312 C 88.695312 28.722656 88.523438 30.984375 88.523438 30.984375 Z M 88.523438 30.984375 " fill-opacity="1" fill-rule="nonzero"/><g clip-path="url(#id1)"><path fill="#010101" d="M 89.445312 22.816406 C 89.402344 21.734375 89.035156 20.742188 88.414062 20.023438 C 87.589844 19.070312 86.351562 18.765625 85.367188 18.613281 C 83.625 18.332031 81.339844 18.484375 79.125 18.632812 C 77.90625 18.714844 76.761719 18.792969 75.824219 18.785156 L 69.527344 18.722656 C 54.820312 18.578125 38.152344 18.417969 22.917969 18.945312 C 21.597656 18.992188 20.15625 18.988281 18.695312 18.984375 C 16.707031 18.988281 14.65625 18.972656 12.832031 19.09375 C 12.046875 19.144531 11.0625 19.207031 10.191406 19.699219 C 7.914062 20.984375 7.972656 24.167969 7.996094 25.367188 C 8.042969 28.03125 8.132812 30.796875 8.222656 33.628906 C 8.5625 44.273438 8.945312 56.335938 7.175781 66.554688 C 6.800781 68.726562 6.371094 71.1875 7.515625 73.320312 C 8.667969 75.472656 11.113281 76.765625 14.78125 77.171875 C 17.894531 77.519531 21.035156 77.359375 24.070312 77.199219 C 29.800781 76.90625 35.792969 77.023438 41.589844 77.136719 C 47.417969 77.25 53.445312 77.371094 59.238281 77.070312 C 63.9375 76.828125 69.039062 77.0625 73.972656 77.289062 C 76.585938 77.40625 79.171875 77.523438 81.660156 77.574219 C 81.851562 77.578125 82.070312 77.582031 82.304688 77.582031 C 83.773438 77.582031 85.914062 77.414062 87.238281 75.914062 C 88.089844 74.953125 88.363281 73.722656 88.554688 72.644531 L 88.625 72.257812 C 88.941406 70.464844 89.273438 68.617188 89.292969 66.738281 C 89.332031 63.199219 89.398438 59.519531 89.464844 55.769531 C 89.660156 44.691406 89.863281 33.234375 89.445312 22.816406 Z M 11.101562 21.289062 C 11.605469 21.007812 12.289062 20.960938 12.957031 20.917969 C 14.714844 20.804688 16.734375 20.816406 18.691406 20.8125 C 20.171875 20.816406 21.644531 20.820312 22.984375 20.773438 C 38.175781 20.242188 54.824219 20.410156 69.511719 20.550781 L 75.808594 20.609375 C 76.816406 20.617188 77.992188 20.539062 79.25 20.453125 C 81.261719 20.316406 83.539062 20.164062 85.074219 20.414062 C 85.753906 20.523438 86.585938 20.710938 87.019531 21.214844 C 87.367188 21.617188 87.582031 22.230469 87.609375 22.890625 C 87.703125 25.214844 87.753906 27.609375 87.792969 30.023438 C 80.679688 29.527344 73.480469 29.527344 66.386719 30.070312 C 65.441406 30.140625 64.496094 30.222656 63.550781 30.304688 C 61.816406 30.453125 60.078125 30.601562 58.339844 30.695312 C 56.667969 30.785156 54.847656 30.632812 53.082031 30.484375 C 51.699219 30.367188 50.277344 30.25 48.914062 30.242188 C 42.359375 30.214844 35.652344 30.078125 29.164062 29.949219 C 22.851562 29.820312 16.335938 29.691406 9.945312 29.65625 C 9.902344 28.191406 9.863281 26.746094 9.839844 25.335938 C 9.792969 23.054688 10.183594 21.808594 11.101562 21.289062 Z M 87.621094 55.738281 C 87.558594 59.492188 87.492188 63.171875 87.453125 66.71875 C 87.433594 68.445312 87.117188 70.222656 86.8125 71.9375 L 86.742188 72.328125 C 86.597656 73.160156 86.394531 74.101562 85.859375 74.707031 C 84.960938 75.722656 83.234375 75.773438 81.699219 75.742188 C 79.222656 75.695312 76.65625 75.578125 74.058594 75.460938 C 70.589844 75.300781 67.035156 75.140625 63.578125 75.140625 C 62.078125 75.140625 60.59375 75.167969 59.148438 75.246094 C 53.417969 75.539062 47.425781 75.421875 41.628906 75.308594 C 35.800781 75.195312 29.773438 75.074219 23.980469 75.375 C 21.011719 75.527344 17.949219 75.6875 14.988281 75.355469 C 12.910156 75.125 10.203125 74.433594 9.144531 72.460938 C 8.296875 70.878906 8.652344 68.839844 9.023438 66.6875 C 10.796875 56.464844 10.40625 44.300781 10.066406 33.570312 C 10.042969 32.867188 10.023438 32.179688 10.003906 31.484375 C 16.355469 31.519531 22.84375 31.648438 29.128906 31.773438 C 35.625 31.90625 42.339844 32.042969 48.910156 32.070312 C 50.195312 32.078125 51.523438 32.1875 52.929688 32.304688 C 54.367188 32.425781 55.847656 32.550781 57.289062 32.550781 C 57.675781 32.550781 58.058594 32.539062 58.441406 32.519531 C 60.199219 32.425781 61.957031 32.277344 63.710938 32.125 C 64.652344 32.042969 65.589844 31.964844 66.53125 31.890625 C 73.585938 31.355469 80.742188 31.351562 87.820312 31.855469 C 87.898438 39.660156 87.761719 47.789062 87.621094 55.738281 Z M 87.621094 55.738281 " fill-opacity="1" fill-rule="nonzero"/></g><path fill="#71c598" d="M 27.820312 41.664062 C 29.421875 40.808594 30.96875 39 32.570312 38.144531 C 36.667969 43.421875 40.972656 48.21875 45.070312 53.496094 C 45.265625 53.75 45.476562 54.03125 45.480469 54.351562 C 45.484375 54.636719 45.328125 54.902344 45.167969 55.136719 C 41.792969 60.207031 36.074219 63.695312 32.238281 68.425781 C 32.050781 68.652344 31.84375 68.90625 31.550781 68.949219 C 31.265625 68.996094 30.996094 68.828125 30.753906 68.671875 C 30.136719 68.261719 28.242188 65.996094 27.625 65.585938 C 31.394531 61.5625 34.769531 58.222656 38.585938 54.355469 C 35.316406 49.386719 32.058594 45.847656 27.820312 41.664062 Z M 27.820312 41.664062 " fill-opacity="1" fill-rule="nonzero"/><path fill="#010101" d="M 31.449219 69.875 C 30.910156 69.875 30.484375 69.59375 30.242188 69.433594 C 29.871094 69.1875 29.34375 68.636719 28.519531 67.757812 C 28.046875 67.257812 27.332031 66.5 27.113281 66.351562 C 26.890625 66.203125 26.738281 65.964844 26.707031 65.695312 C 26.675781 65.429688 26.765625 65.164062 26.949219 64.96875 C 29.910156 61.804688 32.628906 59.0625 35.507812 56.160156 L 37.40625 54.242188 C 34.351562 49.710938 31.308594 46.402344 27.167969 42.316406 C 26.960938 42.113281 26.863281 41.820312 26.90625 41.535156 C 26.949219 41.25 27.125 41 27.378906 40.863281 C 28.09375 40.480469 28.820312 39.863281 29.59375 39.210938 C 30.40625 38.527344 31.246094 37.816406 32.132812 37.34375 C 32.527344 37.132812 33.019531 37.238281 33.296875 37.59375 C 35.335938 40.21875 37.464844 42.773438 39.523438 45.242188 C 41.59375 47.726562 43.734375 50.292969 45.792969 52.945312 C 46.015625 53.230469 46.382812 53.707031 46.394531 54.34375 C 46.40625 54.933594 46.097656 55.398438 45.933594 55.648438 C 43.984375 58.570312 41.296875 60.976562 38.691406 63.308594 C 36.679688 65.105469 34.605469 66.964844 32.945312 69.003906 C 32.71875 69.285156 32.335938 69.757812 31.6875 69.859375 C 31.609375 69.867188 31.53125 69.875 31.449219 69.875 Z M 28.933594 65.535156 C 29.195312 65.800781 29.5 66.121094 29.867188 66.507812 C 30.335938 67.007812 31.046875 67.765625 31.261719 67.910156 C 31.289062 67.929688 31.34375 67.964844 31.398438 67.996094 C 31.441406 67.949219 31.488281 67.890625 31.519531 67.851562 C 33.265625 65.699219 35.398438 63.792969 37.460938 61.945312 C 39.980469 59.695312 42.582031 57.359375 44.398438 54.636719 C 44.496094 54.488281 44.550781 54.390625 44.558594 54.351562 C 44.539062 54.320312 44.398438 54.136719 44.335938 54.058594 C 42.300781 51.429688 40.167969 48.878906 38.109375 46.40625 C 36.210938 44.128906 34.25 41.78125 32.347656 39.359375 C 31.84375 39.710938 31.324219 40.148438 30.789062 40.605469 C 30.292969 41.023438 29.792969 41.445312 29.273438 41.824219 C 33.1875 45.730469 36.292969 49.207031 39.351562 53.859375 C 39.589844 54.214844 39.542969 54.691406 39.238281 54.996094 L 36.816406 57.445312 C 34.160156 60.128906 31.636719 62.671875 28.933594 65.535156 Z M 28.933594 65.535156 " fill-opacity="1" fill-rule="nonzero"/><path fill="#71c598" d="M 49.613281 63.621094 C 49.839844 64.71875 49.9375 66.242188 49.613281 67.316406 C 53.523438 67.316406 56.621094 67.363281 60.332031 67.324219 C 63.019531 67.296875 65.703125 67.675781 68.390625 67.558594 C 68.871094 67.535156 69.421875 67.457031 69.679688 67.054688 C 69.898438 66.714844 69.820312 66.273438 69.734375 65.882812 C 69.585938 65.203125 69.4375 64.519531 69.289062 63.839844 C 69.265625 63.734375 69.242188 63.621094 69.175781 63.535156 C 69.046875 63.359375 68.808594 63.324219 68.589844 63.304688 C 62.777344 62.738281 55.375 62.664062 49.613281 63.621094 Z M 49.613281 63.621094 " fill-opacity="1" fill-rule="nonzero"/><path fill="#010101" d="M 67.28125 68.496094 C 66.140625 68.496094 65.003906 68.429688 63.898438 68.367188 C 62.726562 68.296875 61.511719 68.222656 60.339844 68.242188 C 57.96875 68.265625 55.847656 68.253906 53.601562 68.246094 C 52.332031 68.238281 51.023438 68.234375 49.613281 68.234375 C 49.320312 68.234375 49.046875 68.097656 48.871094 67.863281 C 48.699219 67.632812 48.644531 67.332031 48.730469 67.054688 C 49.015625 66.117188 48.898438 64.71875 48.710938 63.808594 C 48.660156 63.566406 48.710938 63.3125 48.851562 63.105469 C 48.996094 62.902344 49.214844 62.761719 49.460938 62.722656 C 54.671875 61.851562 61.859375 61.738281 68.679688 62.394531 C 68.9375 62.421875 69.539062 62.480469 69.917969 62.992188 C 70.101562 63.242188 70.15625 63.496094 70.191406 63.648438 L 70.632812 65.691406 C 70.726562 66.101562 70.890625 66.867188 70.460938 67.542969 C 69.910156 68.40625 68.835938 68.453125 68.433594 68.472656 C 68.046875 68.488281 67.664062 68.496094 67.28125 68.496094 Z M 60.621094 66.410156 C 61.761719 66.410156 62.898438 66.472656 64.007812 66.539062 C 65.4375 66.621094 66.917969 66.699219 68.347656 66.644531 C 68.792969 66.621094 68.902344 66.554688 68.921875 66.542969 C 68.914062 66.515625 68.890625 66.347656 68.832031 66.074219 L 68.429688 64.210938 C 62.085938 63.609375 55.585938 63.679688 50.664062 64.382812 C 50.738281 65.027344 50.765625 65.730469 50.707031 66.402344 C 51.714844 66.40625 52.671875 66.410156 53.609375 66.414062 C 55.847656 66.425781 57.960938 66.4375 60.320312 66.410156 C 60.417969 66.410156 60.519531 66.410156 60.621094 66.410156 Z M 60.621094 66.410156 " fill-opacity="1" fill-rule="nonzero"/><path fill="#010101" d="M 84.054688 26.886719 C 83.90625 26.167969 83.460938 25.53125 82.699219 24.933594 C 82.675781 24.910156 82.648438 24.894531 82.625 24.875 C 82.929688 24.535156 83.265625 24.214844 83.5625 23.871094 C 83.894531 23.488281 83.851562 22.910156 83.464844 22.582031 C 83.082031 22.253906 82.5 22.292969 82.167969 22.679688 C 81.855469 23.039062 81.503906 23.378906 81.179688 23.734375 C 81.058594 23.605469 80.933594 23.480469 80.804688 23.371094 C 80.636719 23.230469 80.453125 23.109375 80.25 22.984375 L 79.4375 22.476562 C 79.011719 22.207031 78.441406 22.335938 78.167969 22.761719 C 77.898438 23.1875 78.023438 23.753906 78.457031 24.023438 L 79.285156 24.542969 C 79.398438 24.613281 79.515625 24.679688 79.621094 24.769531 C 79.707031 24.84375 79.785156 24.925781 79.863281 25.011719 L 79.925781 25.074219 C 79.59375 25.417969 79.285156 25.785156 78.949219 26.121094 C 78.914062 26.15625 78.855469 26.210938 78.804688 26.253906 C 78.523438 26.382812 78.273438 26.621094 78.1875 26.875 C 78.074219 27.210938 78.164062 27.578125 78.421875 27.824219 C 78.597656 27.992188 78.824219 28.082031 79.058594 28.082031 C 79.167969 28.082031 79.277344 28.0625 79.382812 28.023438 C 79.785156 27.871094 80.0625 27.601562 80.246094 27.417969 C 80.632812 27.03125 80.984375 26.617188 81.363281 26.222656 C 81.425781 26.269531 81.492188 26.3125 81.554688 26.363281 C 81.957031 26.683594 82.191406 26.980469 82.25 27.257812 C 82.339844 27.6875 82.722656 27.984375 83.148438 27.984375 C 83.210938 27.984375 83.273438 27.976562 83.335938 27.964844 C 83.839844 27.863281 84.160156 27.378906 84.054688 26.886719 Z M 84.054688 26.886719 " fill-opacity="1" fill-rule="nonzero"/><path fill="#010101" d="M 73.910156 27.945312 C 73.863281 27.945312 73.8125 27.941406 73.761719 27.9375 C 72.371094 27.761719 70.984375 27.695312 69.59375 27.707031 C 69.300781 27.695312 69.085938 27.605469 68.90625 27.417969 C 68.730469 27.230469 68.640625 26.980469 68.660156 26.722656 C 68.753906 25.496094 68.820312 24.265625 68.867188 23.035156 C 68.882812 22.527344 69.347656 22.179688 69.816406 22.152344 C 69.960938 22.15625 70.097656 22.195312 70.21875 22.261719 C 70.472656 22.175781 70.753906 22.199219 70.984375 22.335938 L 74.230469 22.441406 C 74.714844 22.457031 75.105469 22.847656 75.121094 23.328125 C 75.15625 24.542969 75.105469 25.769531 74.972656 26.976562 C 74.945312 27.210938 74.777344 27.558594 74.59375 27.710938 C 74.402344 27.867188 74.171875 27.945312 73.910156 27.945312 Z M 70.566406 25.878906 C 71.449219 25.890625 72.332031 25.941406 73.210938 26.03125 C 73.257812 25.4375 73.285156 24.839844 73.289062 24.242188 L 70.871094 24.160156 C 70.820312 24.160156 70.75 24.15625 70.664062 24.144531 C 70.632812 24.726562 70.601562 25.300781 70.566406 25.878906 Z M 71.222656 22.535156 Z M 71.222656 22.535156 " fill-opacity="1" fill-rule="nonzero"/><path fill="#010101" d="M 64.117188 28.167969 C 63.777344 28.167969 63.457031 28.105469 63.195312 28.054688 C 62.257812 27.871094 61.359375 27.894531 60.515625 28.105469 C 60.015625 28.214844 59.523438 27.925781 59.402344 27.4375 C 59.277344 26.949219 59.578125 26.453125 60.070312 26.332031 C 61.171875 26.054688 62.347656 26.027344 63.464844 26.242188 C 63.746094 26.296875 64.113281 26.371094 64.21875 26.328125 C 64.617188 26.023438 65.191406 26.097656 65.503906 26.496094 C 65.8125 26.898438 65.734375 27.476562 65.328125 27.785156 C 64.945312 28.082031 64.519531 28.167969 64.117188 28.167969 Z M 64.117188 28.167969 " fill-opacity="1" fill-rule="nonzero"/></svg>