<svg xmlns="http://www.w3.org/2000/svg" xmlns:xlink="http://www.w3.org/1999/xlink" width="128" zoomAndPan="magnify" viewBox="0 0 96 95.999999" height="128" preserveAspectRatio="xMidYMid meet" version="1.0"><defs><clipPath id="id1"><path d="M 10.59375 10.085938 L 87.09375 10.085938 L 87.09375 86.585938 L 10.59375 86.585938 Z M 10.59375 10.085938 " clip-rule="nonzero"/></clipPath></defs><g clip-path="url(#id1)"><path fill="#ff6600" d="M 87.09375 75.140625 C 87.09375 75.894531 87.023438 76.636719 86.875 77.375 C 86.730469 78.113281 86.511719 78.828125 86.226562 79.523438 C 85.9375 80.21875 85.585938 80.878906 85.167969 81.503906 C 84.753906 82.128906 84.277344 82.707031 83.746094 83.238281 C 83.214844 83.769531 82.636719 84.246094 82.011719 84.664062 C 81.386719 85.078125 80.726562 85.433594 80.03125 85.71875 C 79.335938 86.007812 78.621094 86.222656 77.882812 86.367188 C 77.144531 86.515625 76.402344 86.585938 75.648438 86.585938 L 22.066406 86.585938 C 15.726562 86.585938 10.59375 81.507812 10.59375 75.140625 L 10.59375 21.5625 C 10.59375 15.226562 15.730469 10.085938 22.066406 10.085938 L 75.648438 10.085938 C 76.402344 10.089844 77.144531 10.164062 77.882812 10.3125 C 78.621094 10.460938 79.335938 10.679688 80.03125 10.96875 C 80.726562 11.257812 81.382812 11.613281 82.007812 12.03125 C 82.632812 12.449219 83.210938 12.925781 83.742188 13.457031 C 84.273438 13.992188 84.75 14.570312 85.164062 15.195312 C 85.582031 15.820312 85.933594 16.480469 86.222656 17.175781 C 86.511719 17.871094 86.726562 18.589844 86.875 19.328125 C 87.019531 20.0625 87.09375 20.808594 87.09375 21.5625 L 87.09375 75.140625 " fill-opacity="1" fill-rule="nonzero"/></g><path fill="#ffffff" d="M 40.65625 24.515625 C 32.210938 24.515625 25.359375 31.367188 25.355469 39.816406 L 25.355469 56.605469 C 25.355469 57.609375 25.453125 58.601562 25.648438 59.589844 C 25.847656 60.574219 26.136719 61.53125 26.523438 62.457031 C 26.90625 63.386719 27.378906 64.265625 27.9375 65.101562 C 28.492188 65.9375 29.128906 66.707031 29.839844 67.417969 C 30.550781 68.128906 31.320312 68.761719 32.15625 69.320312 C 32.992188 69.878906 33.875 70.351562 34.800781 70.734375 C 35.730469 71.117188 36.6875 71.410156 37.671875 71.605469 C 38.65625 71.800781 39.652344 71.898438 40.65625 71.898438 L 57.125 71.898438 C 65.574219 71.898438 72.40625 65.054688 72.40625 56.605469 L 72.40625 45.757812 C 72.40625 44.070312 71.054688 42.699219 69.363281 42.699219 L 66.726562 42.699219 C 65.109375 42.699219 63.792969 41.4375 63.683594 39.855469 L 63.664062 39.816406 C 63.664062 38.8125 63.566406 37.820312 63.371094 36.832031 C 63.175781 35.847656 62.882812 34.890625 62.5 33.964844 C 62.117188 33.035156 61.644531 32.152344 61.085938 31.316406 C 60.527344 30.484375 59.894531 29.710938 59.183594 29 C 58.472656 28.289062 57.699219 27.65625 56.863281 27.097656 C 56.03125 26.539062 55.148438 26.066406 54.21875 25.683594 C 53.292969 25.296875 52.335938 25.007812 51.351562 24.8125 C 50.363281 24.617188 49.371094 24.519531 48.363281 24.519531 Z M 40.277344 36.929688 L 48.941406 36.929688 C 50.5625 36.929688 51.886719 38.242188 51.886719 39.871094 C 51.886719 40.261719 51.808594 40.636719 51.660156 40.996094 C 51.511719 41.359375 51.296875 41.675781 51.023438 41.953125 C 50.746094 42.226562 50.429688 42.441406 50.066406 42.589844 C 49.707031 42.738281 49.332031 42.816406 48.941406 42.816406 L 40.277344 42.816406 C 39.886719 42.816406 39.511719 42.738281 39.152344 42.589844 C 38.789062 42.441406 38.472656 42.226562 38.195312 41.953125 C 37.921875 41.675781 37.707031 41.359375 37.558594 40.996094 C 37.410156 40.636719 37.332031 40.261719 37.332031 39.871094 C 37.332031 38.242188 38.652344 36.929688 40.277344 36.929688 Z M 40.257812 54.15625 L 57.644531 54.15625 C 59.179688 54.15625 60.4375 55.390625 60.4375 56.929688 C 60.4375 58.464844 59.179688 59.726562 57.644531 59.726562 L 40.257812 59.726562 C 38.722656 59.726562 37.484375 58.464844 37.484375 56.929688 C 37.484375 55.394531 38.71875 54.15625 40.257812 54.15625 Z M 40.257812 54.15625 " fill-opacity="1" fill-rule="nonzero"/></svg>