<svg xmlns="http://www.w3.org/2000/svg" xmlns:xlink="http://www.w3.org/1999/xlink" width="128" zoomAndPan="magnify" viewBox="0 0 96 95.999999" height="128" preserveAspectRatio="xMidYMid meet" version="1.0"><path fill="#4caf50" d="M 87.808594 50.175781 C 87.808594 51.390625 87.75 52.601562 87.632812 53.8125 C 87.511719 55.023438 87.332031 56.222656 87.097656 57.414062 C 86.859375 58.605469 86.566406 59.785156 86.210938 60.949219 C 85.859375 62.109375 85.449219 63.253906 84.984375 64.375 C 84.519531 65.5 84 66.597656 83.429688 67.667969 C 82.855469 68.742188 82.230469 69.78125 81.554688 70.792969 C 80.878906 71.804688 80.15625 72.777344 79.386719 73.71875 C 78.613281 74.65625 77.800781 75.554688 76.941406 76.414062 C 76.082031 77.273438 75.183594 78.089844 74.242188 78.863281 C 73.304688 79.632812 72.328125 80.355469 71.316406 81.03125 C 70.304688 81.707031 69.265625 82.332031 68.195312 82.902344 C 67.121094 83.476562 66.023438 83.996094 64.902344 84.460938 C 63.777344 84.925781 62.636719 85.335938 61.472656 85.6875 C 60.308594 86.039062 59.132812 86.335938 57.941406 86.570312 C 56.746094 86.808594 55.546875 86.988281 54.335938 87.105469 C 53.128906 87.226562 51.914062 87.285156 50.699219 87.285156 C 49.484375 87.285156 48.273438 87.226562 47.0625 87.105469 C 45.851562 86.988281 44.652344 86.808594 43.460938 86.570312 C 42.269531 86.335938 41.089844 86.039062 39.929688 85.6875 C 38.765625 85.335938 37.621094 84.925781 36.5 84.460938 C 35.375 83.996094 34.277344 83.476562 33.207031 82.902344 C 32.136719 82.332031 31.09375 81.707031 30.082031 81.03125 C 29.074219 80.355469 28.097656 79.632812 27.160156 78.863281 C 26.21875 78.089844 25.320312 77.273438 24.460938 76.414062 C 23.601562 75.554688 22.785156 74.65625 22.015625 73.71875 C 21.242188 72.777344 20.519531 71.804688 19.84375 70.792969 C 19.167969 69.78125 18.546875 68.742188 17.972656 67.667969 C 17.398438 66.597656 16.878906 65.5 16.414062 64.375 C 15.949219 63.253906 15.542969 62.109375 15.1875 60.949219 C 14.835938 59.785156 14.542969 58.605469 14.304688 57.414062 C 14.066406 56.222656 13.890625 55.023438 13.769531 53.8125 C 13.652344 52.601562 13.589844 51.390625 13.589844 50.175781 C 13.589844 48.960938 13.652344 47.746094 13.769531 46.539062 C 13.890625 45.328125 14.066406 44.128906 14.304688 42.9375 C 14.542969 41.742188 14.835938 40.566406 15.1875 39.402344 C 15.542969 38.242188 15.949219 37.097656 16.414062 35.972656 C 16.878906 34.851562 17.398438 33.753906 17.972656 32.683594 C 18.546875 31.609375 19.167969 30.570312 19.84375 29.558594 C 20.519531 28.546875 21.242188 27.574219 22.015625 26.632812 C 22.785156 25.695312 23.601562 24.792969 24.460938 23.933594 C 25.320312 23.074219 26.21875 22.261719 27.160156 21.488281 C 28.097656 20.71875 29.074219 19.996094 30.082031 19.320312 C 31.09375 18.644531 32.136719 18.019531 33.207031 17.449219 C 34.277344 16.875 35.375 16.355469 36.5 15.890625 C 37.621094 15.425781 38.765625 15.015625 39.929688 14.664062 C 41.089844 14.3125 42.269531 14.015625 43.460938 13.78125 C 44.652344 13.542969 45.851562 13.363281 47.0625 13.246094 C 48.273438 13.125 49.484375 13.066406 50.699219 13.066406 C 51.914062 13.066406 53.128906 13.125 54.335938 13.246094 C 55.546875 13.363281 56.746094 13.542969 57.941406 13.78125 C 59.132812 14.015625 60.308594 14.3125 61.472656 14.664062 C 62.636719 15.015625 63.777344 15.425781 64.902344 15.890625 C 66.023438 16.355469 67.121094 16.875 68.195312 17.449219 C 69.265625 18.019531 70.304688 18.644531 71.316406 19.320312 C 72.328125 19.996094 73.304688 20.71875 74.242188 21.488281 C 75.183594 22.261719 76.082031 23.074219 76.941406 23.933594 C 77.800781 24.792969 78.613281 25.695312 79.386719 26.632812 C 80.15625 27.574219 80.878906 28.546875 81.554688 29.558594 C 82.230469 30.570312 82.855469 31.609375 83.429688 32.683594 C 84 33.753906 84.519531 34.851562 84.984375 35.972656 C 85.449219 37.097656 85.859375 38.242188 86.210938 39.402344 C 86.566406 40.566406 86.859375 41.742188 87.097656 42.9375 C 87.332031 44.128906 87.511719 45.328125 87.632812 46.539062 C 87.75 47.746094 87.808594 48.960938 87.808594 50.175781 Z M 87.808594 50.175781 " fill-opacity="1" fill-rule="nonzero"/><path fill="#ffc107" d="M 50.699219 13.066406 L 50.699219 50.175781 L 66.324219 57.988281 L 49.136719 87.285156 L 50.699219 87.285156 C 71.207031 87.285156 87.808594 70.683594 87.808594 50.175781 C 87.808594 29.667969 71.207031 13.066406 50.699219 13.066406 Z M 50.699219 13.066406 " fill-opacity="1" fill-rule="nonzero"/><path fill="#f44336" d="M 35.074219 57.988281 L 50.699219 32.597656 L 83.316406 32.597656 C 77.066406 20.878906 64.761719 13.066406 50.699219 13.066406 C 37.613281 13.066406 26.089844 19.902344 19.449219 30.253906 Z M 35.074219 57.988281 " fill-opacity="1" fill-rule="nonzero"/><path fill="#dd2c00" d="M 19.449219 30.253906 L 35.074219 57.988281 L 44.839844 56.035156 Z M 19.449219 30.253906 " fill-opacity="1" fill-rule="nonzero"/><path fill="#f9a825" d="M 83.121094 32.597656 L 50.699219 32.597656 L 47.769531 41.972656 Z M 83.121094 32.597656 " fill-opacity="1" fill-rule="nonzero"/><path fill="#558b2f" d="M 49.136719 87.285156 L 66.324219 57.988281 L 58.902344 51.933594 Z M 49.136719 87.285156 " fill-opacity="1" fill-rule="nonzero"/><path fill="#ffffff" d="M 68.277344 50.175781 C 68.277344 50.75 68.25 51.324219 68.195312 51.898438 C 68.136719 52.472656 68.054688 53.039062 67.941406 53.605469 C 67.828125 54.167969 67.6875 54.726562 67.523438 55.277344 C 67.355469 55.828125 67.160156 56.371094 66.941406 56.902344 C 66.71875 57.433594 66.472656 57.953125 66.203125 58.460938 C 65.929688 58.96875 65.636719 59.460938 65.316406 59.941406 C 64.996094 60.421875 64.652344 60.882812 64.289062 61.328125 C 63.921875 61.773438 63.535156 62.199219 63.128906 62.605469 C 62.722656 63.011719 62.296875 63.398438 61.851562 63.765625 C 61.40625 64.128906 60.945312 64.472656 60.464844 64.792969 C 59.988281 65.109375 59.496094 65.40625 58.988281 65.679688 C 58.480469 65.949219 57.960938 66.195312 57.425781 66.414062 C 56.894531 66.636719 56.355469 66.828125 55.804688 66.996094 C 55.253906 67.164062 54.695312 67.304688 54.128906 67.414062 C 53.566406 67.527344 52.996094 67.613281 52.421875 67.667969 C 51.851562 67.726562 51.277344 67.753906 50.699219 67.753906 C 50.125 67.753906 49.550781 67.726562 48.976562 67.667969 C 48.40625 67.613281 47.835938 67.527344 47.269531 67.414062 C 46.707031 67.304688 46.148438 67.164062 45.597656 66.996094 C 45.046875 66.828125 44.503906 66.636719 43.972656 66.414062 C 43.441406 66.195312 42.921875 65.949219 42.414062 65.679688 C 41.90625 65.40625 41.414062 65.109375 40.933594 64.792969 C 40.457031 64.472656 39.992188 64.128906 39.550781 63.765625 C 39.105469 63.398438 38.679688 63.011719 38.269531 62.605469 C 37.863281 62.199219 37.476562 61.773438 37.113281 61.328125 C 36.746094 60.882812 36.40625 60.421875 36.085938 59.941406 C 35.765625 59.460938 35.46875 58.96875 35.199219 58.460938 C 34.925781 57.953125 34.679688 57.433594 34.460938 56.902344 C 34.238281 56.371094 34.046875 55.828125 33.878906 55.277344 C 33.710938 54.726562 33.570312 54.167969 33.460938 53.605469 C 33.347656 53.039062 33.261719 52.472656 33.207031 51.898438 C 33.152344 51.324219 33.121094 50.75 33.121094 50.175781 C 33.121094 49.601562 33.152344 49.027344 33.207031 48.453125 C 33.261719 47.878906 33.347656 47.3125 33.460938 46.746094 C 33.570312 46.183594 33.710938 45.625 33.878906 45.074219 C 34.046875 44.523438 34.238281 43.980469 34.460938 43.449219 C 34.679688 42.917969 34.925781 42.398438 35.199219 41.890625 C 35.46875 41.382812 35.765625 40.886719 36.085938 40.410156 C 36.40625 39.929688 36.746094 39.46875 37.113281 39.023438 C 37.476562 38.578125 37.863281 38.152344 38.269531 37.746094 C 38.679688 37.339844 39.105469 36.953125 39.550781 36.585938 C 39.992188 36.222656 40.457031 35.878906 40.933594 35.558594 C 41.414062 35.238281 41.90625 34.945312 42.414062 34.671875 C 42.921875 34.402344 43.441406 34.15625 43.972656 33.9375 C 44.503906 33.714844 45.046875 33.523438 45.597656 33.355469 C 46.148438 33.1875 46.707031 33.046875 47.269531 32.933594 C 47.835938 32.824219 48.40625 32.738281 48.976562 32.683594 C 49.550781 32.625 50.125 32.597656 50.699219 32.597656 C 51.277344 32.597656 51.851562 32.625 52.421875 32.683594 C 52.996094 32.738281 53.566406 32.824219 54.128906 32.933594 C 54.695312 33.046875 55.253906 33.1875 55.804688 33.355469 C 56.355469 33.523438 56.894531 33.714844 57.425781 33.9375 C 57.960938 34.15625 58.480469 34.402344 58.988281 34.671875 C 59.496094 34.945312 59.988281 35.238281 60.464844 35.558594 C 60.945312 35.878906 61.40625 36.222656 61.851562 36.585938 C 62.296875 36.953125 62.722656 37.339844 63.128906 37.746094 C 63.535156 38.152344 63.921875 38.578125 64.289062 39.023438 C 64.652344 39.46875 64.996094 39.929688 65.316406 40.410156 C 65.636719 40.886719 65.929688 41.382812 66.203125 41.890625 C 66.472656 42.398438 66.71875 42.917969 66.941406 43.449219 C 67.160156 43.980469 67.355469 44.523438 67.523438 45.074219 C 67.6875 45.625 67.828125 46.183594 67.941406 46.746094 C 68.054688 47.3125 68.136719 47.878906 68.195312 48.453125 C 68.25 49.027344 68.277344 49.601562 68.277344 50.175781 Z M 68.277344 50.175781 " fill-opacity="1" fill-rule="nonzero"/><path fill="#2196f3" d="M 64.371094 50.175781 C 64.371094 51.074219 64.285156 51.960938 64.109375 52.84375 C 63.933594 53.722656 63.675781 54.578125 63.332031 55.40625 C 62.988281 56.238281 62.566406 57.023438 62.066406 57.769531 C 61.570312 58.519531 61.003906 59.207031 60.367188 59.84375 C 59.734375 60.476562 59.042969 61.042969 58.296875 61.542969 C 57.550781 62.042969 56.761719 62.464844 55.933594 62.808594 C 55.101562 63.148438 54.246094 63.410156 53.367188 63.585938 C 52.488281 63.761719 51.597656 63.847656 50.699219 63.847656 C 49.800781 63.847656 48.914062 63.761719 48.03125 63.585938 C 47.152344 63.410156 46.296875 63.148438 45.46875 62.808594 C 44.640625 62.464844 43.851562 62.042969 43.105469 61.542969 C 42.359375 61.042969 41.667969 60.476562 41.03125 59.84375 C 40.398438 59.207031 39.832031 58.519531 39.332031 57.769531 C 38.832031 57.023438 38.414062 56.238281 38.070312 55.40625 C 37.726562 54.578125 37.464844 53.722656 37.292969 52.84375 C 37.117188 51.960938 37.027344 51.074219 37.027344 50.175781 C 37.027344 49.277344 37.117188 48.390625 37.292969 47.507812 C 37.464844 46.628906 37.726562 45.773438 38.070312 44.945312 C 38.414062 44.113281 38.832031 43.328125 39.332031 42.578125 C 39.832031 41.832031 40.398438 41.144531 41.03125 40.507812 C 41.667969 39.875 42.359375 39.304688 43.105469 38.808594 C 43.851562 38.308594 44.640625 37.886719 45.46875 37.542969 C 46.296875 37.199219 47.152344 36.941406 48.03125 36.765625 C 48.914062 36.589844 49.800781 36.503906 50.699219 36.503906 C 51.597656 36.503906 52.488281 36.589844 53.367188 36.765625 C 54.246094 36.941406 55.101562 37.199219 55.933594 37.542969 C 56.761719 37.886719 57.550781 38.308594 58.296875 38.808594 C 59.042969 39.304688 59.734375 39.875 60.367188 40.507812 C 61.003906 41.144531 61.570312 41.832031 62.066406 42.578125 C 62.566406 43.328125 62.988281 44.113281 63.332031 44.945312 C 63.675781 45.773438 63.933594 46.628906 64.109375 47.507812 C 64.285156 48.390625 64.371094 49.277344 64.371094 50.175781 Z M 64.371094 50.175781 " fill-opacity="1" fill-rule="nonzero"/></svg>