<svg xmlns="http://www.w3.org/2000/svg" xmlns:xlink="http://www.w3.org/1999/xlink" width="128" zoomAndPan="magnify" viewBox="0 0 96 95.999999" height="128" preserveAspectRatio="xMidYMid meet" version="1.0"><defs><clipPath id="id1"><path d="M 20 5.628906 L 81.085938 5.628906 L 81.085938 88.878906 L 20 88.878906 Z M 20 5.628906 " clip-rule="nonzero"/></clipPath><clipPath id="id2"><path d="M 47 59 L 81.085938 59 L 81.085938 83 L 47 83 Z M 47 59 " clip-rule="nonzero"/></clipPath><clipPath id="id3"><path d="M 47 82 L 49 82 L 49 88.878906 L 47 88.878906 Z M 47 82 " clip-rule="nonzero"/></clipPath><clipPath id="id4"><path d="M 29 56 L 40 56 L 40 88.878906 L 29 88.878906 Z M 29 56 " clip-rule="nonzero"/></clipPath><clipPath id="id5"><path d="M 40 81 L 43 81 L 43 88.878906 L 40 88.878906 Z M 40 81 " clip-rule="nonzero"/></clipPath><clipPath id="id6"><path d="M 67 59 L 81.085938 59 L 81.085938 83 L 67 83 Z M 67 59 " clip-rule="nonzero"/></clipPath></defs><g clip-path="url(#id1)"><path fill="#655f68" d="M 77.578125 59.097656 L 70.941406 59.097656 C 70.941406 59.097656 69.589844 52.328125 67.566406 49.621094 C 65.539062 46.914062 58.78125 44.207031 58.78125 44.207031 C 60.808594 41.5 64.1875 34.730469 64.1875 29.996094 C 64.1875 28.160156 63.273438 26.21875 62.152344 24.539062 L 62.160156 24.539062 C 62.160156 24.539062 62.835938 21.195312 61.484375 17.8125 C 60.136719 14.425781 52.699219 5.628906 47.96875 5.628906 C 43.238281 5.628906 35.128906 13.074219 33.105469 18.488281 C 31.605469 22.496094 33.105469 25.257812 33.105469 25.257812 L 33.128906 25.269531 C 32.023438 27.695312 31.078125 30.433594 31.078125 32.703125 C 31.078125 35.410156 35.128906 42.175781 36.480469 44.207031 C 36.480469 44.207031 31.078125 45.5625 27.699219 50.300781 C 24.320312 55.039062 19.589844 79.402344 20.265625 82.789062 C 20.941406 86.171875 24.320312 88.878906 24.320312 88.878906 L 66.207031 88.878906 L 66.207031 86.523438 C 66.570312 86.636719 66.96875 86.660156 67.347656 86.5625 L 69.367188 86.023438 C 70.125 86.230469 70.957031 86.164062 71.691406 85.800781 L 77.699219 82.789062 L 77.699219 82.78125 C 79.578125 82.71875 81.078125 81.175781 81.078125 79.28125 L 81.078125 62.605469 C 81.078125 60.667969 79.511719 59.097656 77.578125 59.097656 Z M 77.578125 59.097656 " fill-opacity="1" fill-rule="nonzero"/></g><g clip-path="url(#id2)"><path fill="#888c8d" d="M 81.078125 62.605469 L 81.078125 79.28125 C 81.078125 81.175781 79.578125 82.71875 77.699219 82.78125 C 77.660156 82.789062 77.617188 82.789062 77.578125 82.789062 L 71.1875 82.789062 C 70.226562 82.789062 69.355469 82.199219 68.996094 81.304688 L 67.429688 77.371094 C 67.160156 76.695312 66.503906 76.269531 65.800781 76.269531 C 65.6875 76.269531 65.570312 76.28125 65.457031 76.304688 C 64.429688 76.511719 63.8125 77.570312 64.132812 78.5625 L 63.914062 77.90625 C 63.6875 77.222656 62.96875 76.832031 62.273438 77.007812 L 62.144531 77.039062 C 61.410156 77.222656 60.957031 77.976562 61.136719 78.710938 C 60.957031 77.976562 60.207031 77.523438 59.46875 77.703125 L 59.441406 77.71875 C 58.707031 77.902344 58.253906 78.652344 58.4375 79.390625 C 58.253906 78.652344 57.503906 78.199219 56.765625 78.382812 C 56.136719 78.535156 55.726562 79.105469 55.726562 79.722656 C 55.726562 79.84375 55.738281 79.964844 55.773438 80.085938 L 56.503906 82.789062 L 51.46875 82.789062 C 49.535156 82.789062 47.96875 81.21875 47.96875 79.28125 L 47.96875 62.605469 C 47.96875 60.667969 49.535156 59.097656 51.46875 59.097656 L 77.578125 59.097656 C 79.511719 59.097656 81.078125 60.667969 81.078125 62.605469 Z M 81.078125 62.605469 " fill-opacity="1" fill-rule="nonzero"/></g><path fill="#fec4b9" d="M 77.699219 82.78125 L 77.699219 82.789062 L 71.691406 85.800781 C 70.957031 86.164062 70.125 86.230469 69.367188 86.023438 C 68.835938 85.875 68.339844 85.597656 67.929688 85.183594 L 66.457031 83.707031 C 65.855469 83.105469 65.394531 82.359375 65.125 81.546875 L 64.863281 80.757812 L 64.132812 78.5625 C 63.8125 77.570312 64.429688 76.511719 65.457031 76.304688 C 65.570312 76.28125 65.6875 76.269531 65.800781 76.269531 C 66.503906 76.269531 67.160156 76.695312 67.429688 77.371094 L 68.996094 81.304688 C 69.355469 82.199219 70.226562 82.789062 71.1875 82.789062 L 77.578125 82.789062 C 77.617188 82.789062 77.660156 82.789062 77.699219 82.78125 Z M 77.699219 82.78125 " fill-opacity="1" fill-rule="nonzero"/><path fill="#f7b6ad" d="M 69.367188 86.023438 L 67.347656 86.5625 C 66.96875 86.660156 66.570312 86.636719 66.207031 86.523438 C 65.96875 86.441406 65.738281 86.320312 65.542969 86.164062 C 65.484375 86.117188 65.4375 86.070312 65.382812 86.015625 L 62.949219 83.578125 C 62.429688 83.058594 62.0625 82.414062 61.886719 81.703125 L 61.136719 78.710938 C 60.957031 77.976562 61.410156 77.222656 62.144531 77.039062 L 62.273438 77.007812 C 62.96875 76.832031 63.6875 77.222656 63.914062 77.90625 L 64.132812 78.5625 L 64.863281 80.757812 L 65.125 81.546875 C 65.394531 82.359375 65.855469 83.105469 66.457031 83.707031 L 67.929688 85.183594 C 68.339844 85.597656 68.835938 85.875 69.367188 86.023438 Z M 69.367188 86.023438 " fill-opacity="1" fill-rule="nonzero"/><path fill="#fec4b9" d="M 65.542969 86.164062 L 65.539062 86.171875 L 64.058594 86.542969 C 63.300781 86.734375 62.496094 86.511719 61.941406 85.953125 L 60.246094 84.257812 C 59.734375 83.742188 59.363281 83.085938 59.1875 82.375 L 58.4375 79.390625 C 58.253906 78.652344 58.707031 77.902344 59.441406 77.71875 L 59.46875 77.703125 C 60.207031 77.523438 60.957031 77.976562 61.136719 78.710938 L 61.886719 81.703125 C 62.0625 82.414062 62.429688 83.058594 62.949219 83.578125 L 65.382812 86.015625 C 65.4375 86.070312 65.484375 86.117188 65.542969 86.164062 Z M 65.542969 86.164062 " fill-opacity="1" fill-rule="nonzero"/><path fill="#f7b6ad" d="M 61.484375 85.496094 L 59.164062 85.878906 C 58.179688 86.042969 57.226562 85.433594 56.960938 84.472656 L 56.511719 82.789062 L 56.503906 82.789062 L 55.773438 80.085938 C 55.738281 79.964844 55.726562 79.84375 55.726562 79.722656 C 55.726562 79.105469 56.136719 78.535156 56.765625 78.382812 C 57.503906 78.199219 58.253906 78.652344 58.4375 79.390625 L 59.1875 82.375 C 59.363281 83.085938 59.734375 83.742188 60.246094 84.257812 Z M 61.484375 85.496094 " fill-opacity="1" fill-rule="nonzero"/><path fill="#504256" d="M 47.96875 21.195312 C 52.023438 21.195312 60.132812 23.226562 60.132812 32.023438 C 60.132812 37.480469 47.96875 45.5625 47.96875 45.5625 C 47.96875 45.5625 35.804688 37.480469 35.804688 32.023438 C 35.804688 23.226562 43.914062 21.195312 47.96875 21.195312 Z M 47.96875 21.195312 " fill-opacity="1" fill-rule="nonzero"/><path fill="#71cc75" d="M 47.902344 30.707031 L 46.109375 31.160156 C 44.90625 31.464844 43.960938 32.410156 43.65625 33.617188 L 43.207031 35.410156 L 42.753906 33.617188 C 42.449219 32.410156 41.503906 31.464844 40.300781 31.160156 L 38.507812 30.707031 L 40.300781 30.25 C 41.503906 29.945312 42.449219 29 42.753906 27.792969 L 43.207031 26 L 43.65625 27.792969 C 43.960938 29 44.90625 29.945312 46.109375 30.25 Z M 47.902344 30.707031 " fill-opacity="1" fill-rule="nonzero"/><path fill="#47394f" d="M 47.96875 21.195312 C 47.96875 21.195312 58.992188 26.324219 53.855469 35.730469 C 49.699219 43.347656 39.183594 38.207031 39.183594 38.207031 C 42.785156 42.117188 47.96875 45.5625 47.96875 45.5625 C 47.96875 45.5625 60.132812 37.480469 60.132812 32.023438 C 60.132812 23.226562 52.023438 21.195312 47.96875 21.195312 Z M 47.96875 21.195312 " fill-opacity="1" fill-rule="nonzero"/><path fill="#5d5560" d="M 36.855469 18.601562 C 36.546875 18.394531 36.128906 18.476562 35.921875 18.789062 C 35.875 18.859375 34.753906 20.546875 33.527344 22.914062 C 33.355469 23.246094 33.484375 23.652344 33.816406 23.824219 C 33.914062 23.878906 34.019531 23.902344 34.125 23.902344 C 34.371094 23.902344 34.605469 23.769531 34.726562 23.539062 C 35.917969 21.238281 37.035156 19.558594 37.042969 19.539062 C 37.25 19.230469 37.167969 18.808594 36.855469 18.601562 Z M 36.855469 18.601562 " fill-opacity="1" fill-rule="nonzero"/><path fill="#5d5560" d="M 62.152344 24.539062 C 60.386719 21.871094 58.105469 19.84375 58.105469 19.84375 C 58.105469 19.84375 64.863281 28.457031 59.117188 39.765625 C 55.042969 47.796875 49.996094 52.328125 49.996094 52.328125 C 52.023438 51.652344 56.746094 46.921875 58.78125 44.214844 L 58.78125 44.207031 C 60.808594 41.5 64.1875 34.730469 64.1875 29.996094 C 64.1875 28.160156 63.273438 26.21875 62.152344 24.539062 Z M 62.152344 24.539062 " fill-opacity="1" fill-rule="nonzero"/><g clip-path="url(#id3)"><path fill="#5d5560" d="M 47.96875 82.109375 C 47.597656 82.109375 47.292969 82.414062 47.292969 82.789062 L 47.292969 87.324219 C 47.292969 87.699219 47.597656 88.003906 47.96875 88.003906 C 48.34375 88.003906 48.644531 87.699219 48.644531 87.324219 L 48.644531 82.789062 C 48.644531 82.414062 48.34375 82.109375 47.96875 82.109375 Z M 47.96875 82.109375 " fill-opacity="1" fill-rule="nonzero"/></g><path fill="#5d5560" d="M 40.789062 49.472656 C 40.914062 49.574219 41.0625 49.621094 41.210938 49.621094 C 41.410156 49.621094 41.605469 49.535156 41.738281 49.367188 C 41.972656 49.078125 41.925781 48.652344 41.632812 48.417969 C 41.613281 48.398438 39.382812 46.609375 37.875 44.898438 C 37.628906 44.617188 37.203125 44.589844 36.921875 44.839844 C 36.644531 45.085938 36.617188 45.511719 36.863281 45.792969 C 38.449219 47.59375 40.695312 49.398438 40.789062 49.472656 Z M 40.789062 49.472656 " fill-opacity="1" fill-rule="nonzero"/><path fill="#5d5560" d="M 42.050781 51.671875 C 42.027344 51.667969 39.582031 51.027344 38.394531 49.246094 C 38.03125 48.699219 37.738281 47.976562 37.523438 47.09375 C 37.433594 46.730469 37.070312 46.511719 36.707031 46.597656 C 36.34375 46.683594 36.121094 47.050781 36.210938 47.414062 C 36.464844 48.449219 36.820312 49.320312 37.269531 50 C 38.75 52.222656 41.601562 52.957031 41.722656 52.988281 C 41.777344 53 41.832031 53.007812 41.886719 53.007812 C 42.191406 53.007812 42.464844 52.804688 42.542969 52.496094 C 42.632812 52.132812 42.414062 51.765625 42.050781 51.671875 Z M 42.050781 51.671875 " fill-opacity="1" fill-rule="nonzero"/><path fill="#5d5560" d="M 47.96875 53.007812 C 47.96875 52.867188 47.992188 52.710938 48.042969 52.542969 C 48.144531 52.140625 48.355469 51.71875 48.578125 51.273438 C 48.945312 50.539062 49.320312 49.78125 49.320312 48.945312 C 49.320312 48.0625 49.066406 46.949219 48.855469 46.171875 C 48.757812 45.8125 48.386719 45.597656 48.023438 45.695312 C 47.664062 45.796875 47.453125 46.167969 47.550781 46.527344 C 47.820312 47.515625 47.96875 48.375 47.96875 48.945312 C 47.96875 49.464844 47.675781 50.046875 47.367188 50.667969 C 47.222656 50.960938 47.078125 51.257812 46.953125 51.5625 C 46.15625 51.332031 45.574219 51.050781 45.566406 51.046875 C 45.234375 50.882812 44.828125 51.019531 44.660156 51.351562 C 44.496094 51.6875 44.632812 52.09375 44.964844 52.257812 C 45 52.277344 45.683594 52.609375 46.628906 52.875 C 46.625 52.921875 46.617188 52.964844 46.617188 53.007812 C 46.617188 54.0625 46.984375 56.527344 47.199219 57.90625 C 47.261719 58.289062 47.292969 58.683594 47.292969 59.078125 C 47.292969 59.453125 47.597656 59.753906 47.96875 59.753906 C 48.34375 59.753906 48.644531 59.453125 48.644531 59.078125 C 48.644531 58.609375 48.609375 58.144531 48.535156 57.691406 C 48.179688 55.449219 47.96875 53.699219 47.96875 53.007812 Z M 47.96875 53.007812 " fill-opacity="1" fill-rule="nonzero"/><g clip-path="url(#id4)"><path fill="#5d5560" d="M 38.207031 80.828125 C 37.875 80.996094 37.738281 81.402344 37.90625 81.734375 C 37.910156 81.742188 38.144531 82.230469 38.324219 82.882812 C 36.933594 82.117188 34.65625 80.898438 33.152344 80.304688 C 33.308594 78.691406 33.78125 73.800781 33.78125 72.632812 C 33.78125 71.796875 33.398438 71.035156 33.03125 70.300781 C 32.722656 69.679688 32.429688 69.089844 32.429688 68.574219 C 32.429688 68.191406 32.574219 67.371094 32.730469 66.503906 C 33.109375 64.394531 33.578125 61.769531 33.070312 60.238281 C 32.351562 58.078125 30.9375 56.648438 30.878906 56.585938 C 30.613281 56.324219 30.1875 56.324219 29.921875 56.585938 C 29.660156 56.851562 29.660156 57.277344 29.921875 57.542969 C 29.933594 57.558594 31.171875 58.820312 31.785156 60.664062 C 32.1875 61.871094 31.734375 64.410156 31.398438 66.265625 C 31.21875 67.273438 31.078125 68.070312 31.078125 68.574219 C 31.078125 69.410156 31.457031 70.171875 31.824219 70.90625 C 32.132812 71.527344 32.429688 72.117188 32.429688 72.632812 C 32.429688 73.675781 32.003906 78.148438 31.828125 79.941406 C 30.644531 79.789062 29.585938 80.09375 29.53125 80.109375 C 29.175781 80.214844 28.972656 80.589844 29.078125 80.949219 C 29.183594 81.304688 29.558594 81.511719 29.917969 81.40625 C 29.929688 81.402344 31.160156 81.046875 32.214844 81.398438 C 33.84375 81.941406 37.371094 83.894531 38.492188 84.523438 C 38.449219 85.167969 38.3125 86.171875 38.089844 87.425781 C 38.027344 87.792969 38.273438 88.144531 38.640625 88.210938 C 38.679688 88.21875 38.71875 88.21875 38.757812 88.21875 C 39.082031 88.21875 39.367188 87.988281 39.421875 87.660156 C 39.714844 86 39.859375 84.816406 39.859375 84.140625 C 39.859375 82.644531 39.144531 81.191406 39.113281 81.128906 C 38.945312 80.796875 38.542969 80.660156 38.207031 80.828125 Z M 38.207031 80.828125 " fill-opacity="1" fill-rule="nonzero"/></g><g clip-path="url(#id5)"><path fill="#5d5560" d="M 42.324219 83.847656 L 41.871094 81.953125 C 41.78125 81.589844 41.417969 81.367188 41.054688 81.453125 C 40.691406 81.539062 40.46875 81.902344 40.554688 82.269531 L 41.007812 84.160156 C 41.214844 85.058594 41.3125 86.960938 41.203125 87.921875 C 41.160156 88.292969 41.425781 88.632812 41.792969 88.675781 C 41.820312 88.675781 41.847656 88.679688 41.875 88.679688 C 42.210938 88.679688 42.503906 88.425781 42.542969 88.082031 C 42.675781 86.960938 42.566406 84.90625 42.324219 83.847656 Z M 42.324219 83.847656 " fill-opacity="1" fill-rule="nonzero"/></g><path fill="#5d5560" d="M 64.1875 59.097656 L 70.941406 59.097656 C 70.941406 59.097656 69.589844 52.328125 67.566406 49.621094 C 65.539062 46.914062 58.78125 44.207031 58.78125 44.207031 C 58.78125 44.207031 72.660156 54.839844 64.1875 59.097656 Z M 64.1875 59.097656 " fill-opacity="1" fill-rule="nonzero"/><path fill="#5d5560" d="M 57.914062 47.902344 C 57.566406 47.773438 57.171875 47.945312 57.039062 48.296875 C 56.457031 49.832031 55.746094 51.027344 54.925781 51.851562 C 52.472656 54.304688 50.015625 54.359375 49.996094 54.359375 C 49.625 54.359375 49.320312 54.664062 49.320312 55.039062 C 49.320312 55.410156 49.625 55.714844 49.996094 55.714844 C 50.117188 55.714844 53.011719 55.679688 55.878906 52.808594 C 56.835938 51.847656 57.652344 50.492188 58.304688 48.777344 C 58.4375 48.425781 58.261719 48.035156 57.914062 47.902344 Z M 57.914062 47.902344 " fill-opacity="1" fill-rule="nonzero"/><path fill="#5d5560" d="M 65.75 54.394531 C 65.394531 54.273438 65.015625 54.46875 64.898438 54.824219 L 64.042969 57.390625 C 63.921875 57.746094 64.113281 58.128906 64.46875 58.25 C 64.539062 58.273438 64.613281 58.285156 64.683594 58.285156 C 64.964844 58.285156 65.230469 58.105469 65.324219 57.820312 L 66.179688 55.25 C 66.296875 54.898438 66.105469 54.511719 65.75 54.394531 Z M 65.75 54.394531 " fill-opacity="1" fill-rule="nonzero"/><g clip-path="url(#id6)"><path fill="#7a7e7f" d="M 77.578125 59.097656 L 77.578125 71.808594 C 77.578125 71.808594 77.542969 79.960938 67.429688 77.371094 L 68.996094 81.304688 C 69.355469 82.199219 70.226562 82.789062 71.1875 82.789062 L 77.578125 82.789062 C 77.617188 82.789062 77.660156 82.789062 77.699219 82.78125 C 79.578125 82.71875 81.078125 81.175781 81.078125 79.28125 L 81.078125 62.605469 C 81.078125 60.667969 79.511719 59.097656 77.578125 59.097656 Z M 77.578125 59.097656 " fill-opacity="1" fill-rule="nonzero"/></g></svg>