<svg xmlns="http://www.w3.org/2000/svg" xmlns:xlink="http://www.w3.org/1999/xlink" width="128" zoomAndPan="magnify" viewBox="0 0 96 95.999999" height="128" preserveAspectRatio="xMidYMid meet" version="1.0"><defs><clipPath id="id1"><path d="M 14 9.601562 L 85.289062 9.601562 L 85.289062 78 L 14 78 Z M 14 9.601562 " clip-rule="nonzero"/></clipPath></defs><g clip-path="url(#id1)"><path fill="#0868ac" d="M 18.9375 25.53125 C 12.679688 34.53125 13.453125 46.238281 18.238281 55.824219 C 18.347656 56.054688 18.46875 56.28125 18.585938 56.507812 L 18.808594 56.9375 C 18.851562 57.023438 18.902344 57.105469 18.949219 57.1875 C 19.03125 57.339844 19.113281 57.480469 19.199219 57.632812 L 19.65625 58.414062 L 19.917969 58.84375 L 20.445312 59.671875 L 20.671875 60.023438 C 20.921875 60.394531 21.175781 60.765625 21.441406 61.128906 L 21.589844 61.332031 C 21.816406 61.644531 22.050781 61.953125 22.289062 62.261719 L 22.554688 62.597656 L 23.199219 63.394531 L 23.449219 63.6875 C 23.742188 64.035156 24.042969 64.382812 24.347656 64.71875 C 24.378906 64.75 24.390625 64.761719 24.402344 64.773438 C 24.699219 65.101562 25.007812 65.421875 25.316406 65.738281 L 25.609375 66.035156 L 26.339844 66.75 L 26.636719 67.039062 C 26.96875 67.347656 27.300781 67.652344 27.640625 67.949219 L 28.738281 68.878906 L 29.113281 69.179688 L 29.871094 69.773438 L 30.277344 70.082031 L 31.128906 70.691406 L 31.523438 70.972656 C 31.796875 71.160156 32.074219 71.339844 32.351562 71.519531 L 32.710938 71.757812 C 33.136719 72.027344 33.570312 72.292969 34.003906 72.550781 L 34.363281 72.769531 L 35.335938 73.316406 C 35.511719 73.410156 35.695312 73.5 35.871094 73.589844 L 36.566406 73.953125 L 36.726562 74.027344 L 37.015625 74.167969 L 38.117188 74.675781 L 38.347656 74.777344 C 38.773438 74.964844 39.203125 75.140625 39.632812 75.3125 L 39.945312 75.433594 L 41.15625 75.882812 L 41.308594 75.9375 C 41.757812 76.089844 42.207031 76.238281 42.660156 76.378906 L 42.984375 76.476562 C 43.429688 76.617188 43.90625 76.785156 44.378906 76.871094 C 74.660156 82.390625 83.453125 58.671875 83.453125 58.671875 C 76.066406 68.296875 62.953125 70.832031 50.503906 68.007812 C 50.035156 67.902344 49.574219 67.753906 49.117188 67.617188 L 48.773438 67.515625 C 48.324219 67.378906 47.878906 67.230469 47.4375 67.078125 L 47.253906 67.011719 C 46.859375 66.871094 46.46875 66.726562 46.078125 66.578125 L 45.746094 66.445312 C 45.320312 66.277344 44.894531 66.097656 44.472656 65.914062 L 44.21875 65.804688 L 43.148438 65.304688 L 42.839844 65.15625 C 42.558594 65.023438 42.285156 64.875 42.007812 64.714844 L 41.457031 64.425781 C 41.121094 64.25 40.792969 64.058594 40.460938 63.867188 L 40.125 63.679688 C 39.691406 63.421875 39.257812 63.160156 38.832031 62.890625 C 38.714844 62.8125 38.597656 62.734375 38.480469 62.65625 L 37.5625 62.042969 C 37.460938 61.976562 37.339844 61.902344 37.265625 61.835938 L 36.394531 61.207031 L 36.007812 60.914062 L 35.222656 60.300781 L 34.875 60.019531 L 33.894531 59.195312 C 33.859375 59.164062 33.824219 59.132812 33.785156 59.105469 L 32.757812 58.171875 L 32.46875 57.890625 L 31.734375 57.160156 L 31.449219 56.875 C 31.136719 56.558594 30.835938 56.238281 30.5625 55.914062 C 30.546875 55.898438 30.53125 55.882812 30.519531 55.867188 C 30.207031 55.523438 29.898438 55.171875 29.597656 54.816406 L 29.378906 54.53125 L 28.714844 53.710938 L 28.492188 53.410156 L 27.730469 52.390625 C 20.789062 42.988281 18.308594 29.992188 23.824219 19.332031 M 38.375 17.953125 C 33.84375 24.46875 34.089844 33.210938 37.621094 40.082031 C 38.214844 41.242188 38.882812 42.355469 39.625 43.425781 C 40.304688 44.398438 41.054688 45.554688 41.957031 46.335938 C 42.28125 46.695312 42.625 47.042969 42.972656 47.390625 L 43.238281 47.65625 C 43.578125 47.984375 43.921875 48.304688 44.273438 48.621094 C 44.289062 48.628906 44.300781 48.644531 44.320312 48.65625 C 44.722656 49.011719 45.128906 49.320312 45.542969 49.671875 L 45.816406 49.882812 C 46.230469 50.203125 46.65625 50.511719 47.085938 50.8125 L 47.125 50.835938 C 47.3125 50.96875 47.507812 51.09375 47.703125 51.21875 C 47.796875 51.28125 47.882812 51.34375 47.976562 51.402344 C 48.285156 51.601562 48.597656 51.792969 48.917969 51.976562 L 49.050781 52.054688 L 49.882812 52.496094 C 49.976562 52.550781 50.101562 52.597656 50.175781 52.652344 L 50.757812 52.953125 C 50.789062 52.96875 50.820312 52.976562 50.847656 52.992188 C 51.246094 53.191406 51.648438 53.378906 52.058594 53.554688 L 52.324219 53.664062 C 52.652344 53.804688 52.984375 53.941406 53.320312 54.066406 L 53.742188 54.222656 C 54.046875 54.332031 54.351562 54.4375 54.65625 54.539062 L 55.070312 54.671875 C 55.507812 54.804688 55.957031 54.980469 56.390625 55.054688 C 79.769531 58.929688 85.167969 40.902344 85.167969 40.902344 C 80.304688 47.910156 70.882812 51.25 60.828125 48.640625 C 60.382812 48.523438 59.941406 48.398438 59.503906 48.257812 C 59.371094 48.21875 59.238281 48.175781 59.105469 48.132812 L 58.175781 47.8125 L 57.734375 47.65625 C 57.398438 47.527344 57.066406 47.394531 56.738281 47.253906 L 56.46875 47.144531 C 56.058594 46.964844 55.648438 46.777344 55.246094 46.578125 L 54.636719 46.269531 L 54.28125 46.085938 C 54.019531 45.945312 53.761719 45.800781 53.507812 45.652344 L 53.320312 45.546875 C 53.003906 45.363281 52.691406 45.171875 52.382812 44.972656 C 52.289062 44.914062 52.195312 44.847656 52.101562 44.785156 L 51.492188 44.382812 C 51.066406 44.085938 50.644531 43.777344 50.234375 43.457031 L 49.945312 43.238281 C 45.523438 39.761719 42.054688 35.011719 40.398438 29.628906 C 38.660156 24.046875 39.03125 17.777344 42.042969 12.691406 M 54.71875 12.285156 C 52.050781 16.234375 51.785156 21.09375 53.640625 25.433594 C 55.59375 30.039062 59.59375 33.648438 64.265625 35.382812 L 64.847656 35.605469 L 65.101562 35.683594 L 65.9375 35.90625 C 78.847656 38.398438 82.34375 29.28125 83.28125 27.9375 C 80.210938 32.355469 75.058594 33.414062 68.734375 31.878906 C 68.234375 31.757812 67.6875 31.574219 67.203125 31.40625 C 66.585938 31.1875 65.980469 30.933594 65.386719 30.652344 C 64.257812 30.109375 63.195312 29.460938 62.199219 28.707031 C 56.542969 24.414062 53.023438 16.203125 56.71875 9.535156 " fill-opacity="1" fill-rule="nonzero"/></g></svg>