<svg xmlns="http://www.w3.org/2000/svg" xmlns:xlink="http://www.w3.org/1999/xlink" width="128" zoomAndPan="magnify" viewBox="0 0 96 95.999999" height="128" preserveAspectRatio="xMidYMid meet" version="1.0"><defs><clipPath id="id1"><path d="M 20 8.636719 L 76.046875 8.636719 L 76.046875 86.636719 L 20 86.636719 Z M 20 8.636719 " clip-rule="nonzero"/></clipPath><clipPath id="id2"><path d="M 62 8.636719 L 77 8.636719 L 77 23 L 62 23 Z M 62 8.636719 " clip-rule="nonzero"/></clipPath><clipPath id="id3"><path d="M 12.484375 42.390625 L 83.617188 42.390625 L 83.617188 75.941406 L 12.484375 75.941406 Z M 12.484375 42.390625 " clip-rule="nonzero"/></clipPath></defs><path fill="#80d4fa" d="M 74.875 44.878906 L 14.808594 44.878906 L 14.808594 73.464844 L 81.296875 73.464844 L 81.296875 44.878906 L 74.875 44.878906 " fill-opacity="1" fill-rule="evenodd"/><path fill="#e3f2fd" d="M 73.714844 75.792969 L 22.386719 75.792969 L 22.386719 84.308594 L 73.714844 84.308594 L 73.714844 75.792969 " fill-opacity="1" fill-rule="evenodd"/><path fill="#e3f2fd" d="M 62.40625 10.964844 L 22.386719 10.964844 L 22.386719 42.550781 L 73.714844 42.550781 L 73.714844 22.289062 L 69.222656 22.289062 C 67.347656 22.289062 65.644531 21.523438 64.40625 20.285156 C 63.171875 19.050781 62.40625 17.339844 62.40625 15.460938 Z M 30.421875 21.980469 L 55.464844 21.980469 C 56.105469 21.980469 56.625 22.5 56.625 23.144531 C 56.625 23.789062 56.105469 24.308594 55.464844 24.308594 L 30.421875 24.308594 C 29.777344 24.308594 29.257812 23.789062 29.257812 23.144531 C 29.257812 22.5 29.777344 21.980469 30.421875 21.980469 Z M 30.421875 28.402344 L 65.679688 28.402344 C 66.324219 28.402344 66.84375 28.921875 66.84375 29.566406 C 66.84375 30.207031 66.324219 30.730469 65.679688 30.730469 L 30.421875 30.730469 C 29.777344 30.730469 29.257812 30.207031 29.257812 29.566406 C 29.257812 28.921875 29.777344 28.402344 30.421875 28.402344 Z M 29.257812 35.988281 C 29.257812 35.34375 29.777344 34.820312 30.421875 34.820312 L 65.679688 34.820312 C 66.324219 34.820312 66.84375 35.34375 66.84375 35.988281 C 66.84375 36.628906 66.324219 37.152344 65.679688 37.152344 L 30.421875 37.152344 C 29.777344 37.152344 29.257812 36.628906 29.257812 35.988281 " fill-opacity="1" fill-rule="evenodd"/><path fill="#80d4fa" d="M 64.730469 15.460938 C 64.730469 16.699219 65.238281 17.824219 66.054688 18.640625 C 66.867188 19.457031 67.988281 19.960938 69.226562 19.960938 L 72.070312 19.960938 L 64.730469 12.609375 L 64.730469 15.460938 " fill-opacity="1" fill-rule="evenodd"/><path fill="#444b52" d="M 27.460938 51.777344 L 30.433594 51.777344 L 30.433594 61.132812 C 30.433594 62.355469 30.324219 63.296875 30.109375 63.953125 C 29.820312 64.8125 29.300781 65.503906 28.539062 66.023438 C 27.78125 66.546875 26.78125 66.804688 25.542969 66.804688 C 24.085938 66.804688 22.964844 66.398438 22.179688 65.578125 C 21.398438 64.765625 21 63.566406 20.996094 61.988281 L 23.800781 61.667969 C 23.835938 62.511719 23.960938 63.113281 24.171875 63.460938 C 24.496094 63.992188 24.984375 64.253906 25.640625 64.253906 C 26.304688 64.253906 26.773438 64.066406 27.050781 63.6875 C 27.324219 63.304688 27.460938 62.519531 27.460938 61.320312 Z M 32.847656 61.746094 L 35.746094 61.460938 C 35.917969 62.441406 36.269531 63.152344 36.808594 63.613281 C 37.339844 64.066406 38.058594 64.296875 38.964844 64.296875 C 39.921875 64.296875 40.644531 64.09375 41.128906 63.6875 C 41.617188 63.28125 41.863281 62.804688 41.863281 62.261719 C 41.863281 61.910156 41.761719 61.613281 41.554688 61.371094 C 41.351562 61.121094 40.992188 60.910156 40.480469 60.726562 C 40.136719 60.605469 39.339844 60.394531 38.097656 60.082031 C 36.5 59.6875 35.382812 59.199219 34.738281 58.621094 C 33.832031 57.808594 33.378906 56.820312 33.378906 55.648438 C 33.378906 54.894531 33.589844 54.195312 34.019531 53.535156 C 34.445312 52.882812 35.058594 52.386719 35.859375 52.039062 C 36.664062 51.699219 37.628906 51.527344 38.761719 51.527344 C 40.617188 51.527344 42.007812 51.933594 42.945312 52.746094 C 43.878906 53.5625 44.367188 54.644531 44.417969 56.003906 L 41.4375 56.132812 C 41.3125 55.371094 41.039062 54.828125 40.621094 54.496094 C 40.199219 54.164062 39.574219 53.996094 38.734375 53.996094 C 37.867188 53.996094 37.1875 54.171875 36.699219 54.53125 C 36.382812 54.757812 36.226562 55.0625 36.226562 55.445312 C 36.226562 55.796875 36.375 56.097656 36.667969 56.34375 C 37.042969 56.660156 37.957031 56.988281 39.40625 57.332031 C 40.855469 57.675781 41.925781 58.03125 42.621094 58.394531 C 43.316406 58.761719 43.855469 59.261719 44.25 59.898438 C 44.644531 60.535156 44.839844 61.320312 44.839844 62.25 C 44.839844 63.097656 44.605469 63.890625 44.136719 64.628906 C 43.664062 65.367188 43.003906 65.917969 42.144531 66.273438 C 41.285156 66.636719 40.214844 66.816406 38.933594 66.816406 C 37.066406 66.816406 35.636719 66.386719 34.636719 65.523438 C 33.636719 64.660156 33.039062 63.402344 32.847656 61.746094 Z M 46.742188 59.257812 C 46.742188 57.75 46.964844 56.488281 47.414062 55.46875 C 47.753906 54.714844 48.207031 54.039062 48.789062 53.441406 C 49.367188 52.84375 50.003906 52.402344 50.695312 52.113281 C 51.613281 51.71875 52.675781 51.527344 53.875 51.527344 C 56.050781 51.527344 57.789062 52.199219 59.089844 53.554688 C 60.398438 54.902344 61.050781 56.78125 61.050781 59.183594 C 61.050781 61.574219 60.402344 63.4375 59.105469 64.785156 C 57.8125 66.132812 56.082031 66.804688 53.917969 66.804688 C 51.722656 66.804688 49.980469 66.136719 48.683594 64.796875 C 47.386719 63.457031 46.742188 61.609375 46.742188 59.257812 Z M 49.808594 59.15625 C 49.808594 60.828125 50.199219 62.097656 50.96875 62.960938 C 51.738281 63.824219 52.71875 64.253906 53.90625 64.253906 C 55.089844 64.253906 56.066406 63.828125 56.828125 62.96875 C 57.585938 62.113281 57.96875 60.828125 57.96875 59.117188 C 57.96875 57.421875 57.597656 56.160156 56.859375 55.324219 C 56.117188 54.492188 55.132812 54.078125 53.90625 54.078125 C 52.675781 54.078125 51.6875 54.5 50.933594 55.34375 C 50.1875 56.183594 49.808594 57.453125 49.808594 59.15625 Z M 63.402344 66.554688 L 63.402344 51.777344 L 66.300781 51.777344 L 72.339844 61.644531 L 72.339844 51.777344 L 75.105469 51.777344 L 75.105469 66.554688 L 72.113281 66.554688 L 66.167969 56.917969 L 66.167969 66.554688 L 63.402344 66.554688 " fill-opacity="1" fill-rule="nonzero"/><path fill="#f3be7f" d="M 64.730469 13.542969 L 71.140625 19.960938 L 72.070312 19.960938 L 64.730469 12.609375 L 64.730469 13.542969 " fill-opacity="1" fill-rule="evenodd"/><path fill="#a5afb8" d="M 71.824219 22.289062 L 71.824219 42.550781 L 73.714844 42.550781 L 73.714844 22.289062 L 71.824219 22.292969 " fill-opacity="1" fill-rule="evenodd"/><path fill="#f3be7f" d="M 79.402344 44.878906 L 79.402344 73.464844 L 81.296875 73.464844 L 81.296875 44.878906 L 79.402344 44.878906 " fill-opacity="1" fill-rule="evenodd"/><path fill="#a5afb8" d="M 71.824219 75.792969 L 71.824219 84.308594 L 73.714844 84.308594 L 73.714844 75.792969 L 71.824219 75.792969 " fill-opacity="1" fill-rule="evenodd"/><path fill="#5e9ab6" d="M 64.730469 13.542969 L 71.140625 19.960938 L 72.070312 19.960938 L 64.730469 12.609375 L 64.730469 13.542969 " fill-opacity="1" fill-rule="evenodd"/><path fill="#5e9ab6" d="M 79.402344 44.878906 L 79.402344 73.464844 L 81.296875 73.464844 L 81.296875 44.878906 L 79.402344 44.878906 " fill-opacity="1" fill-rule="evenodd"/><g clip-path="url(#id1)"><path fill="#444b52" d="M 20.0625 43.714844 C 20.0625 44.355469 20.582031 44.878906 21.222656 44.878906 C 21.867188 44.878906 22.386719 44.355469 22.386719 43.714844 L 22.386719 10.964844 L 63.089844 10.964844 L 73.714844 21.609375 L 73.714844 43.714844 C 73.714844 44.355469 74.238281 44.878906 74.875 44.878906 C 75.519531 44.878906 76.039062 44.355469 76.039062 43.714844 L 76.039062 21.125 C 76.039062 20.828125 75.925781 20.53125 75.699219 20.304688 L 64.394531 8.980469 C 64.1875 8.765625 63.894531 8.632812 63.570312 8.632812 L 21.222656 8.632812 C 20.582031 8.632812 20.0625 9.15625 20.0625 9.796875 Z M 76.039062 74.628906 C 76.039062 73.984375 75.519531 73.464844 74.875 73.464844 C 74.238281 73.464844 73.714844 73.984375 73.714844 74.628906 L 73.714844 84.308594 L 22.386719 84.308594 L 22.386719 74.628906 C 22.386719 73.984375 21.867188 73.464844 21.222656 73.464844 C 20.582031 73.464844 20.0625 73.984375 20.0625 74.628906 L 20.0625 85.476562 C 20.0625 86.117188 20.582031 86.640625 21.222656 86.640625 L 74.875 86.640625 C 75.519531 86.640625 76.039062 86.117188 76.039062 85.476562 L 76.039062 74.628906 " fill-opacity="1" fill-rule="nonzero"/></g><g clip-path="url(#id2)"><path fill="#444b52" d="M 64.730469 9.800781 C 64.730469 9.15625 64.210938 8.636719 63.570312 8.636719 C 62.925781 8.636719 62.40625 9.15625 62.40625 9.800781 L 62.40625 15.460938 C 62.40625 17.339844 63.171875 19.050781 64.410156 20.285156 C 65.644531 21.523438 67.347656 22.289062 69.226562 22.289062 L 74.875 22.289062 C 75.519531 22.289062 76.042969 21.769531 76.042969 21.125 C 76.042969 20.484375 75.519531 19.960938 74.875 19.960938 L 69.226562 19.960938 C 67.988281 19.960938 66.867188 19.457031 66.054688 18.640625 C 65.238281 17.824219 64.730469 16.699219 64.730469 15.460938 L 64.730469 9.800781 " fill-opacity="1" fill-rule="nonzero"/></g><g clip-path="url(#id3)"><path fill="#444b52" d="M 14.808594 73.464844 L 81.296875 73.464844 L 81.296875 44.878906 L 14.808594 44.878906 Z M 82.457031 75.792969 L 13.644531 75.792969 C 13.003906 75.792969 12.484375 75.273438 12.484375 74.628906 L 12.484375 43.714844 C 12.484375 43.070312 13.003906 42.550781 13.644531 42.550781 L 82.457031 42.550781 C 83.097656 42.550781 83.621094 43.070312 83.621094 43.714844 L 83.621094 74.628906 C 83.621094 75.273438 83.097656 75.792969 82.457031 75.792969 " fill-opacity="1" fill-rule="nonzero"/></g><path fill="#444b52" d="M 30.421875 21.980469 C 29.777344 21.980469 29.257812 22.5 29.257812 23.144531 C 29.257812 23.789062 29.777344 24.308594 30.421875 24.308594 L 55.460938 24.308594 C 56.105469 24.308594 56.625 23.789062 56.625 23.144531 C 56.625 22.5 56.105469 21.980469 55.460938 21.980469 L 30.421875 21.980469 " fill-opacity="1" fill-rule="nonzero"/><path fill="#444b52" d="M 30.421875 28.402344 C 29.777344 28.402344 29.257812 28.921875 29.257812 29.566406 C 29.257812 30.207031 29.777344 30.730469 30.421875 30.730469 L 65.679688 30.730469 C 66.324219 30.730469 66.84375 30.207031 66.84375 29.566406 C 66.84375 28.921875 66.324219 28.402344 65.679688 28.402344 L 30.421875 28.402344 " fill-opacity="1" fill-rule="nonzero"/><path fill="#444b52" d="M 30.421875 34.820312 C 29.777344 34.820312 29.257812 35.34375 29.257812 35.988281 C 29.257812 36.628906 29.777344 37.152344 30.421875 37.152344 L 65.679688 37.152344 C 66.324219 37.152344 66.84375 36.628906 66.84375 35.988281 C 66.84375 35.34375 66.324219 34.820312 65.679688 34.820312 L 30.421875 34.820312 " fill-opacity="1" fill-rule="nonzero"/></svg>