<svg xmlns="http://www.w3.org/2000/svg" xmlns:xlink="http://www.w3.org/1999/xlink" width="128" zoomAndPan="magnify" viewBox="0 0 96 95.999999" height="128" preserveAspectRatio="xMidYMid meet" version="1.0"><defs><clipPath id="id1"><path d="M 7.035156 21.78125 L 88.785156 21.78125 L 88.785156 74.28125 L 7.035156 74.28125 Z M 7.035156 21.78125 " clip-rule="nonzero"/></clipPath></defs><g clip-path="url(#id1)"><path fill="#000000" d="M 13.574219 21.78125 C 9.980469 21.78125 7.035156 24.734375 7.035156 28.34375 L 7.035156 67.71875 C 7.035156 71.328125 9.980469 74.28125 13.574219 74.28125 L 82.242188 74.28125 C 85.835938 74.28125 88.78125 71.328125 88.78125 67.71875 L 88.78125 28.34375 C 88.78125 24.734375 85.835938 21.78125 82.242188 21.78125 Z M 13.574219 25.0625 L 82.242188 25.0625 C 84.070312 25.0625 85.511719 26.511719 85.511719 28.34375 L 85.511719 67.71875 C 85.511719 69.550781 84.070312 71 82.242188 71 L 13.574219 71 C 11.75 71 10.304688 69.550781 10.304688 67.71875 L 10.304688 28.34375 C 10.304688 26.511719 11.75 25.0625 13.574219 25.0625 Z M 20.117188 34.90625 L 20.117188 61.15625 L 26.65625 61.15625 L 26.65625 43.671875 L 34.828125 54.59375 L 43.003906 43.671875 L 43.003906 61.15625 L 49.542969 61.15625 L 49.542969 34.90625 L 43.003906 34.90625 L 34.828125 45.929688 L 26.65625 34.90625 Z M 64.257812 34.90625 L 64.257812 48.03125 L 56.082031 48.03125 L 67.527344 61.15625 L 78.972656 48.03125 L 70.796875 48.03125 L 70.796875 34.90625 Z M 64.257812 34.90625 " fill-opacity="1" fill-rule="nonzero"/></g></svg>