<svg xmlns="http://www.w3.org/2000/svg" xmlns:xlink="http://www.w3.org/1999/xlink" width="128" zoomAndPan="magnify" viewBox="0 0 96 95.999999" height="128" preserveAspectRatio="xMidYMid meet" version="1.0"><defs><clipPath id="id1"><path d="M 7 7.15625 L 66 7.15625 L 66 69 L 7 69 Z M 7 7.15625 " clip-rule="nonzero"/></clipPath><clipPath id="id2"><path d="M 31 26 L 89 26 L 89 87.40625 L 31 87.40625 Z M 31 26 " clip-rule="nonzero"/></clipPath></defs><g clip-path="url(#id1)"><path fill="#0277bd" d="M 49.128906 7.15625 C 45.839844 7.167969 43.5625 7.457031 40.808594 7.933594 C 32.671875 9.347656 31.1875 12.320312 31.1875 17.796875 L 31.1875 26.164062 L 50.21875 26.164062 L 50.21875 30.386719 L 21.269531 30.386719 C 15.695312 30.386719 10.820312 33.011719 9.273438 39.296875 C 7.527344 46.515625 7.449219 51.035156 9.273438 58.570312 C 10.660156 64.1875 13.710938 68.402344 19.285156 68.402344 L 26.964844 68.402344 L 26.964844 57.621094 C 26.964844 51.359375 32.640625 45.171875 39.148438 45.171875 L 54.449219 45.171875 C 59.78125 45.171875 65.019531 41.238281 65.019531 35.929688 L 65.019531 17.796875 C 65.019531 12.644531 61.300781 8.792969 56.101562 7.929688 C 56.230469 7.917969 52.386719 7.144531 49.128906 7.15625 Z M 38.589844 15.605469 C 40.328125 15.605469 41.761719 17.035156 41.761719 18.777344 C 41.761719 20.535156 40.328125 21.941406 38.589844 21.941406 C 36.820312 21.941406 35.417969 20.539062 35.417969 18.777344 C 35.417969 17.042969 36.820312 15.605469 38.589844 15.605469 Z M 38.589844 15.605469 " fill-opacity="1" fill-rule="nonzero"/></g><g clip-path="url(#id2)"><path fill="#ffc107" d="M 47.078125 87.40625 C 50.367188 87.398438 52.644531 87.109375 55.402344 86.632812 C 63.535156 85.21875 65.019531 82.246094 65.019531 76.769531 L 65.019531 68.402344 L 45.992188 68.402344 L 45.992188 64.179688 L 74.941406 64.179688 C 80.511719 64.179688 85.390625 61.554688 86.9375 55.269531 C 88.683594 48.050781 88.761719 43.53125 86.9375 35.996094 C 85.550781 30.378906 82.5 26.164062 76.921875 26.164062 L 69.246094 26.164062 L 69.246094 36.945312 C 69.246094 43.207031 63.566406 49.394531 57.058594 49.394531 L 41.761719 49.394531 C 36.425781 49.394531 31.1875 53.328125 31.1875 58.636719 L 31.1875 76.769531 C 31.1875 81.921875 34.90625 85.773438 40.105469 86.636719 C 39.976562 86.648438 43.820312 87.421875 47.078125 87.40625 Z M 57.617188 78.960938 C 55.882812 78.960938 54.449219 77.53125 54.449219 75.789062 C 54.449219 74.03125 55.882812 72.625 57.617188 72.625 C 59.386719 72.625 60.789062 74.027344 60.789062 75.789062 C 60.789062 77.523438 59.386719 78.960938 57.617188 78.960938 Z M 57.617188 78.960938 " fill-opacity="1" fill-rule="nonzero"/></g></svg>