<svg xmlns="http://www.w3.org/2000/svg" xmlns:xlink="http://www.w3.org/1999/xlink" width="128" zoomAndPan="magnify" viewBox="0 0 96 95.999999" height="128" preserveAspectRatio="xMidYMid meet" version="1.0"><defs><clipPath id="id1"><path d="M 7 23 L 89.480469 23 L 89.480469 79 L 7 79 Z M 7 23 " clip-rule="nonzero"/></clipPath><clipPath id="id2"><path d="M 15 7 L 86 7 L 86 89.414062 L 15 89.414062 Z M 15 7 " clip-rule="nonzero"/></clipPath></defs><path fill="#25282d" d="M 24.707031 64.492188 L 24.910156 64.835938 Z M 45.785156 78.28125 L 45.144531 78.210938 C 45.355469 78.246094 45.570312 78.269531 45.785156 78.28125 C 47.496094 78.460938 49.195312 78.46875 50.851562 78.328125 C 49.179688 78.457031 47.496094 78.457031 45.785156 78.28125 Z M 50.949219 78.316406 L 52.628906 78.113281 Z M 65.921875 72.132812 L 66.859375 71.316406 Z M 24.707031 64.492188 L 23.910156 64.554688 Z M 78.652344 47.90625 L 75.914062 49.390625 L 78.652344 47.90625 L 79.121094 47.640625 Z M 26.332031 48.78125 C 26.339844 48.761719 26.339844 48.746094 26.339844 48.730469 C 26.332031 48.738281 26.332031 48.753906 26.332031 48.78125 Z M 26.332031 48.78125 " fill-opacity="1" fill-rule="nonzero"/><g clip-path="url(#id1)"><path fill="#25282d" d="M 89.273438 35.265625 C 88.148438 31.464844 82.984375 29.925781 73.503906 30.554688 C 73.347656 30.5625 73.191406 30.574219 73.039062 30.589844 C 73.640625 31.371094 74.210938 32.175781 74.742188 33.007812 C 75.28125 33.851562 75.78125 34.722656 76.238281 35.617188 C 82.0625 35.464844 83.871094 36.460938 84.285156 36.757812 C 84.109375 37.226562 83.1875 38.953125 78.636719 41.863281 C 78.617188 41.875 78.609375 41.882812 78.59375 41.890625 C 78.574219 41.898438 78.566406 41.910156 78.546875 41.917969 C 78.523438 41.933594 78.488281 41.960938 78.453125 41.976562 C 78.390625 42.011719 78.328125 42.054688 78.257812 42.101562 C 77.742188 42.429688 77.179688 42.765625 76.5625 43.121094 C 76.410156 43.210938 76.253906 43.300781 76.097656 43.386719 L 75.359375 43.800781 C 75.28125 43.84375 75.191406 43.890625 75.105469 43.945312 C 74.59375 41.96875 73.882812 40.066406 72.976562 38.277344 L 72.792969 37.917969 C 72.664062 37.675781 72.539062 37.429688 72.398438 37.199219 C 72.335938 37.082031 72.257812 36.960938 72.199219 36.84375 C 72.011719 36.527344 71.828125 36.214844 71.636719 35.917969 C 70.535156 34.179688 69.253906 32.589844 67.796875 31.144531 C 67.285156 30.632812 66.75 30.144531 66.195312 29.667969 L 65.527344 29.109375 L 65.183594 28.84375 C 64.875 28.605469 64.570312 28.375 64.253906 28.15625 L 63.480469 27.632812 C 62.960938 27.289062 62.425781 26.96875 61.882812 26.660156 C 61.503906 26.445312 61.125 26.246094 60.730469 26.050781 C 60.597656 25.988281 60.464844 25.917969 60.34375 25.855469 L 59.289062 25.367188 C 58.933594 25.214844 58.570312 25.070312 58.207031 24.933594 C 57.847656 24.792969 57.480469 24.667969 57.101562 24.546875 C 56.734375 24.421875 56.355469 24.308594 55.976562 24.199219 C 54.457031 23.765625 52.882812 23.464844 51.257812 23.292969 C 47.246094 22.886719 43.332031 23.382812 39.738281 24.613281 C 39.371094 24.734375 39.011719 24.867188 38.640625 25.007812 C 38.28125 25.152344 37.921875 25.300781 37.558594 25.460938 L 36.503906 25.957031 C 33.730469 27.34375 31.191406 29.175781 29.023438 31.378906 C 28.339844 32.070312 27.699219 32.792969 27.097656 33.554688 C 26.855469 33.855469 26.621094 34.164062 26.394531 34.484375 C 25.9375 35.113281 25.496094 35.78125 25.097656 36.433594 C 24.789062 36.9375 24.5 37.441406 24.226562 37.972656 C 23.015625 40.292969 22.148438 42.738281 21.636719 45.308594 C 21.492188 45.984375 21.390625 46.664062 21.300781 47.355469 L 21.222656 48.042969 C 21.109375 49.175781 21.066406 50.308594 21.09375 51.445312 C 21.152344 54.222656 21.628906 56.914062 22.472656 59.460938 C 20.882812 59.558594 19.539062 59.585938 18.386719 59.558594 C 14.125 59.460938 12.691406 58.671875 12.332031 58.40625 C 12.5 57.972656 13.316406 56.425781 17.15625 53.839844 C 17.035156 52.820312 16.960938 51.796875 16.9375 50.769531 C 16.914062 49.785156 16.9375 48.804688 17.007812 47.824219 C 9.417969 52.304688 6.257812 56.269531 7.335938 59.914062 C 8.128906 62.5625 10.859375 64.109375 15.65625 64.597656 C 17.097656 64.738281 18.722656 64.789062 20.546875 64.746094 C 21.402344 64.722656 22.257812 64.683594 23.113281 64.632812 L 23.902344 64.578125 L 24.699219 64.515625 C 24.761719 64.632812 24.832031 64.746094 24.902344 64.863281 C 28.65625 71.242188 34.902344 76.039062 42.421875 77.757812 L 43.25 77.9375 C 43.457031 77.980469 43.664062 78.019531 43.875 78.050781 C 44.296875 78.125 44.71875 78.183594 45.136719 78.238281 C 45.347656 78.261719 45.570312 78.289062 45.777344 78.308594 C 47.492188 78.484375 49.1875 78.492188 50.847656 78.351562 C 50.882812 78.351562 50.917969 78.34375 50.953125 78.34375 C 51.515625 78.289062 52.074219 78.222656 52.632812 78.140625 C 52.824219 78.113281 53.011719 78.082031 53.203125 78.042969 C 53.898438 77.917969 54.582031 77.777344 55.257812 77.601562 L 56.550781 77.238281 C 57.183594 77.042969 57.816406 76.824219 58.429688 76.574219 C 58.632812 76.496094 58.839844 76.417969 59.042969 76.328125 C 59.976562 75.941406 60.886719 75.496094 61.769531 75.003906 C 61.917969 74.925781 62.058594 74.832031 62.207031 74.753906 C 62.496094 74.585938 62.785156 74.410156 63.066406 74.234375 C 63.78125 73.78125 64.464844 73.304688 65.132812 72.789062 L 65.925781 72.160156 C 66.242188 71.894531 66.558594 71.644531 66.863281 71.347656 L 67.320312 70.921875 L 67.769531 70.488281 C 72.179688 66.117188 75.15625 60.238281 75.816406 53.566406 C 75.953125 52.183594 75.988281 50.800781 75.921875 49.414062 C 76.84375 48.933594 77.757812 48.4375 78.664062 47.925781 L 79.128906 47.660156 C 79.226562 47.609375 79.3125 47.542969 79.410156 47.492188 C 79.472656 47.457031 79.527344 47.421875 79.589844 47.386719 C 85.898438 43.667969 89.15625 40.304688 89.464844 37.179688 C 89.535156 36.53125 89.476562 35.894531 89.289062 35.269531 Z M 70.765625 51.878906 C 70.746094 52.257812 70.71875 52.648438 70.675781 53.027344 C 69.453125 65.339844 58.515625 74.359375 46.285156 73.121094 C 39.644531 72.457031 33.976562 68.890625 30.375 63.789062 C 35.347656 63.042969 40.828125 61.882812 46.496094 60.359375 C 45.472656 58.894531 44.855469 57.269531 44.652344 55.484375 C 38.648438 57.078125 32.871094 58.246094 27.757812 58.917969 C 26.480469 55.648438 26.003906 52.261719 26.324219 48.757812 C 26.324219 48.742188 26.324219 48.722656 26.332031 48.707031 C 26.332031 48.6875 26.332031 48.671875 26.34375 48.65625 C 26.34375 48.621094 26.351562 48.582031 26.351562 48.550781 C 26.5625 46.390625 27.082031 44.328125 27.855469 42.40625 C 31.449219 33.386719 40.65625 27.4375 50.734375 28.449219 C 54.570312 28.835938 58.085938 30.179688 61.066406 32.234375 C 62.867188 33.476562 64.453125 34.953125 65.828125 36.660156 C 68.058594 39.441406 69.640625 42.75 70.359375 46.335938 C 68.472656 47.242188 66.457031 48.105469 64.351562 48.953125 C 65.195312 50.441406 65.695312 52.15625 65.742188 53.988281 C 67.480469 53.296875 69.15625 52.582031 70.765625 51.863281 Z M 70.765625 51.878906 " fill-opacity="1" fill-rule="nonzero"/></g><g clip-path="url(#id2)"><path fill="#25282d" d="M 78.582031 41.910156 C 78.597656 41.902344 78.613281 41.894531 78.625 41.886719 C 78.609375 41.886719 78.601562 41.894531 78.582031 41.910156 Z M 66.183594 29.667969 L 67.785156 31.148438 Z M 58.1875 24.9375 L 59.269531 25.371094 Z M 55.964844 24.191406 L 57.089844 24.535156 Z M 26.585938 81.046875 L 23.035156 80.03125 L 24.554688 83.289062 L 21.53125 84.402344 L 20.667969 80.90625 L 18.542969 84.019531 L 16.085938 81.929688 L 19.003906 79.207031 L 15.023438 79.015625 L 15.074219 78.6875 L 15.566406 75.886719 L 19.1875 76.828125 L 17.570312 73.5625 L 20.582031 72.4375 L 21.539062 75.9375 L 23.605469 72.882812 L 26.085938 74.890625 L 23.210938 77.613281 L 27.148438 77.792969 Z M 63.058594 14.671875 L 64.570312 17.929688 L 61.554688 19.042969 L 60.695312 15.546875 L 58.558594 18.660156 L 56.097656 16.542969 L 59.023438 13.820312 L 55.035156 13.617188 L 55.097656 13.300781 L 55.589844 10.492188 L 59.199219 11.441406 L 57.570312 8.179688 L 60.59375 7.0625 L 61.550781 10.5625 L 63.617188 7.539062 L 66.097656 9.546875 L 63.222656 12.269531 L 67.160156 12.445312 L 66.597656 15.675781 Z M 36.699219 87.140625 L 34.335938 86.46875 L 35.347656 88.636719 L 33.332031 89.378906 L 32.761719 87.050781 L 31.347656 89.121094 L 29.703125 87.722656 L 31.65625 85.917969 L 29.003906 85.789062 L 29.039062 85.574219 L 29.363281 83.707031 L 31.769531 84.335938 L 30.699219 82.160156 L 32.703125 81.414062 L 33.34375 83.753906 L 34.714844 81.726562 L 36.363281 83.058594 L 34.433594 84.882812 L 37.054688 84.992188 Z M 77.457031 22.109375 L 75.09375 21.4375 L 76.105469 23.59375 L 74.09375 24.339844 L 73.519531 22.007812 L 72.105469 24.078125 L 70.472656 22.671875 L 72.402344 20.875 L 69.75 20.742188 L 69.785156 20.519531 L 70.117188 18.664062 L 72.523438 19.289062 L 71.445312 17.113281 L 73.457031 16.371094 L 74.089844 18.707031 L 75.460938 16.679688 L 77.109375 18.007812 L 75.203125 19.832031 L 77.8125 19.960938 Z M 24.75 24.898438 L 22.386719 24.222656 L 23.390625 26.382812 L 21.386719 27.125 L 20.8125 24.796875 L 19.394531 26.894531 L 17.757812 25.484375 L 19.710938 23.679688 L 17.058594 23.554688 L 17.089844 23.335938 L 17.417969 21.476562 L 19.824219 22.097656 L 18.75 19.925781 L 20.753906 19.183594 L 21.394531 21.519531 L 22.765625 19.484375 L 24.417969 20.820312 L 22.488281 22.644531 L 25.105469 22.773438 Z M 84.855469 76.097656 L 82 75.273438 L 83.214844 77.890625 L 80.789062 78.792969 L 80.09375 75.980469 L 78.378906 78.496094 L 76.394531 76.789062 L 78.746094 74.609375 L 75.542969 74.449219 L 75.585938 74.183594 L 75.980469 71.9375 L 78.898438 72.699219 L 77.609375 70.0625 L 80.035156 69.160156 L 80.808594 71.992188 L 82.480469 69.527344 L 84.476562 71.140625 L 82.164062 73.34375 L 85.328125 73.476562 Z M 58.21875 53.390625 L 63.878906 53.652344 L 63.070312 58.289062 L 57.976562 56.835938 L 60.152344 61.503906 L 55.824219 63.105469 L 54.582031 58.085938 L 51.527344 62.574219 L 47.996094 59.539062 L 52.195312 55.644531 L 46.476562 55.359375 L 46.550781 54.890625 L 47.253906 50.871094 L 52.449219 52.226562 L 50.128906 47.535156 L 54.457031 45.933594 L 55.839844 50.976562 L 58.796875 46.585938 L 62.355469 49.472656 Z M 58.21875 53.390625 " fill-opacity="1" fill-rule="nonzero"/></g></svg>