<svg xmlns="http://www.w3.org/2000/svg" xmlns:xlink="http://www.w3.org/1999/xlink" width="128" zoomAndPan="magnify" viewBox="0 0 96 95.999999" height="128" preserveAspectRatio="xMidYMid meet" version="1.0"><defs><clipPath id="id1"><path d="M 10 10 L 87.988281 10 L 87.988281 86.542969 L 10 86.542969 Z M 10 10 " clip-rule="nonzero"/></clipPath></defs><g clip-path="url(#id1)"><path fill="#1e1d1d" d="M 53.855469 53.339844 C 49.964844 57.46875 44.703125 59.828125 39.042969 59.984375 C 38.847656 59.988281 38.648438 59.988281 38.457031 59.988281 C 33.007812 59.988281 27.859375 57.929688 23.890625 54.148438 C 19.5 49.96875 17.28125 44.324219 17.28125 38.675781 C 17.28125 33.410156 19.203125 28.136719 23.082031 24.019531 C 26.980469 19.890625 32.242188 17.527344 37.902344 17.375 C 43.5625 17.222656 48.941406 19.292969 53.054688 23.207031 C 61.535156 31.289062 61.898438 44.808594 53.855469 53.339844 Z M 87.960938 78.496094 C 87.882812 77.4375 87.597656 76.429688 87.121094 75.527344 C 86.648438 74.625 85.988281 73.824219 85.164062 73.164062 L 62.667969 55.203125 C 62.03125 54.695312 61.867188 53.789062 62.28125 53.089844 C 68.972656 41.949219 67 27.355469 57.59375 18.390625 C 46.464844 7.792969 28.835938 8.269531 18.292969 19.457031 C 7.75 30.644531 8.222656 48.367188 19.347656 58.964844 C 28.828125 67.996094 43.027344 69.214844 53.878906 61.941406 C 54.144531 61.757812 54.453125 61.671875 54.765625 61.671875 C 55.222656 61.671875 55.667969 61.859375 55.988281 62.222656 L 75.003906 83.992188 C 76.394531 85.585938 78.324219 86.484375 80.429688 86.515625 L 80.476562 86.515625 C 82.5625 86.542969 84.511719 85.71875 85.941406 84.1875 C 87.246094 82.789062 87.957031 81.046875 87.980469 79.144531 C 87.980469 78.902344 87.976562 78.691406 87.960938 78.496094 " fill-opacity="1" fill-rule="nonzero"/></g><path fill="#1e1d1d" d="M 30.03125 38.539062 C 29.78125 38.265625 29.492188 38.027344 29.175781 37.832031 C 28.871094 37.644531 28.554688 37.476562 28.238281 37.328125 C 27.929688 37.1875 27.628906 37.050781 27.332031 36.921875 C 27.050781 36.800781 26.800781 36.671875 26.582031 36.535156 C 26.386719 36.414062 26.230469 36.273438 26.117188 36.121094 C 26.019531 35.992188 25.972656 35.839844 25.972656 35.65625 C 25.972656 35.527344 25.996094 35.40625 26.042969 35.292969 C 26.085938 35.1875 26.148438 35.097656 26.234375 35.023438 C 26.328125 34.941406 26.449219 34.878906 26.597656 34.828125 C 26.75 34.777344 26.941406 34.753906 27.15625 34.753906 C 27.449219 34.753906 27.71875 34.789062 27.957031 34.859375 C 28.210938 34.933594 28.433594 35.015625 28.625 35.105469 C 28.824219 35.199219 28.988281 35.289062 29.121094 35.363281 C 29.609375 35.652344 29.855469 35.503906 29.972656 35.394531 C 30.054688 35.316406 30.117188 35.207031 30.15625 35.066406 C 30.179688 34.96875 30.199219 34.855469 30.210938 34.714844 C 30.21875 34.589844 30.222656 34.4375 30.222656 34.253906 C 30.222656 34.09375 30.21875 33.957031 30.214844 33.847656 C 30.207031 33.726562 30.195312 33.625 30.175781 33.539062 C 30.15625 33.445312 30.128906 33.363281 30.097656 33.300781 C 30.058594 33.222656 30 33.148438 29.914062 33.0625 C 29.828125 32.972656 29.6875 32.886719 29.464844 32.777344 C 29.265625 32.679688 29.039062 32.59375 28.789062 32.519531 C 28.539062 32.441406 28.269531 32.382812 27.984375 32.339844 C 27.144531 32.210938 26.292969 32.269531 25.542969 32.488281 C 25.035156 32.636719 24.585938 32.863281 24.210938 33.164062 C 23.828125 33.46875 23.519531 33.859375 23.296875 34.316406 C 23.074219 34.78125 22.960938 35.316406 22.960938 35.914062 C 22.960938 36.4375 23.039062 36.894531 23.195312 37.273438 C 23.351562 37.652344 23.558594 37.984375 23.808594 38.261719 C 24.054688 38.535156 24.335938 38.773438 24.652344 38.96875 C 24.949219 39.15625 25.261719 39.328125 25.578125 39.472656 C 25.886719 39.617188 26.1875 39.753906 26.476562 39.878906 C 26.75 40 26.992188 40.128906 27.207031 40.265625 C 27.398438 40.390625 27.554688 40.53125 27.671875 40.683594 C 27.769531 40.8125 27.820312 40.96875 27.820312 41.15625 C 27.820312 41.332031 27.785156 41.492188 27.722656 41.632812 C 27.664062 41.769531 27.578125 41.878906 27.460938 41.972656 C 27.339844 42.070312 27.183594 42.148438 27 42.203125 C 26.808594 42.261719 26.585938 42.289062 26.335938 42.289062 C 25.9375 42.289062 25.589844 42.246094 25.292969 42.15625 C 24.984375 42.066406 24.71875 41.964844 24.503906 41.855469 C 24.277344 41.742188 24.09375 41.640625 23.957031 41.550781 C 23.570312 41.296875 23.296875 41.300781 23.082031 41.460938 C 22.980469 41.535156 22.90625 41.644531 22.859375 41.785156 C 22.824219 41.886719 22.796875 42.011719 22.785156 42.160156 C 22.769531 42.296875 22.765625 42.457031 22.765625 42.65625 C 22.765625 42.957031 22.785156 43.183594 22.820312 43.355469 C 22.867188 43.5625 22.953125 43.726562 23.074219 43.847656 C 23.171875 43.945312 23.316406 44.050781 23.515625 44.167969 C 23.707031 44.277344 23.945312 44.382812 24.21875 44.480469 C 24.492188 44.578125 24.8125 44.660156 25.164062 44.730469 C 25.523438 44.796875 25.914062 44.832031 26.328125 44.832031 C 26.9375 44.832031 27.523438 44.75 28.0625 44.589844 C 28.613281 44.421875 29.101562 44.171875 29.515625 43.84375 C 29.9375 43.507812 30.273438 43.085938 30.515625 42.589844 C 30.761719 42.089844 30.886719 41.503906 30.886719 40.851562 C 30.886719 40.351562 30.804688 39.902344 30.648438 39.523438 C 30.492188 39.148438 30.285156 38.816406 30.03125 38.539062 " fill-opacity="1" fill-rule="nonzero"/><path fill="#1e1d1d" d="M 40.679688 42.546875 C 40.628906 42.417969 40.554688 42.320312 40.460938 42.253906 C 40.363281 42.179688 40.246094 42.140625 40.121094 42.140625 L 36.332031 42.140625 L 36.332031 39.558594 L 39.460938 39.558594 C 39.578125 39.558594 39.6875 39.523438 39.789062 39.457031 C 39.882812 39.390625 39.960938 39.296875 40.015625 39.167969 C 40.058594 39.070312 40.089844 38.953125 40.105469 38.808594 C 40.125 38.679688 40.132812 38.527344 40.132812 38.339844 C 40.132812 38.15625 40.125 38.007812 40.109375 37.875 C 40.089844 37.726562 40.058594 37.609375 40.015625 37.511719 C 39.964844 37.390625 39.890625 37.292969 39.800781 37.226562 C 39.699219 37.152344 39.582031 37.113281 39.460938 37.113281 L 36.332031 37.113281 L 36.332031 34.964844 L 40.085938 34.964844 C 40.214844 34.964844 40.332031 34.925781 40.433594 34.847656 C 40.515625 34.777344 40.585938 34.683594 40.636719 34.558594 C 40.679688 34.460938 40.707031 34.339844 40.726562 34.191406 C 40.742188 34.0625 40.75 33.90625 40.75 33.730469 C 40.75 33.542969 40.742188 33.378906 40.726562 33.246094 C 40.707031 33.105469 40.679688 32.984375 40.636719 32.882812 C 40.585938 32.75 40.511719 32.652344 40.417969 32.582031 C 40.324219 32.511719 40.207031 32.476562 40.085938 32.476562 L 34.378906 32.476562 C 34.105469 32.476562 33.867188 32.5625 33.675781 32.730469 C 33.46875 32.910156 33.363281 33.183594 33.363281 33.542969 L 33.363281 43.5625 C 33.363281 43.921875 33.46875 44.195312 33.675781 44.375 C 33.867188 44.542969 34.105469 44.628906 34.378906 44.628906 L 40.121094 44.628906 C 40.246094 44.628906 40.363281 44.589844 40.460938 44.515625 C 40.554688 44.449219 40.628906 44.351562 40.683594 44.21875 C 40.722656 44.121094 40.75 44.003906 40.769531 43.855469 C 40.785156 43.726562 40.796875 43.566406 40.796875 43.382812 C 40.796875 43.203125 40.785156 43.042969 40.769531 42.910156 C 40.75 42.765625 40.722656 42.648438 40.679688 42.546875 " fill-opacity="1" fill-rule="nonzero"/><path fill="#1e1d1d" d="M 49.679688 41.96875 C 49.347656 42.152344 48.917969 42.246094 48.40625 42.246094 C 47.886719 42.246094 47.457031 42.164062 47.128906 42 C 46.804688 41.839844 46.550781 41.613281 46.359375 41.308594 C 46.160156 40.988281 46.015625 40.597656 45.925781 40.140625 C 45.839844 39.660156 45.792969 39.113281 45.792969 38.507812 C 45.792969 37.996094 45.839844 37.5 45.929688 37.042969 C 46.019531 36.601562 46.171875 36.214844 46.382812 35.890625 C 46.589844 35.578125 46.863281 35.320312 47.199219 35.132812 C 47.527344 34.945312 47.957031 34.851562 48.46875 34.851562 C 48.976562 34.851562 49.402344 34.933594 49.734375 35.101562 C 50.058594 35.269531 50.316406 35.5 50.511719 35.804688 C 50.714844 36.121094 50.859375 36.507812 50.949219 36.957031 C 51.035156 37.429688 51.082031 37.964844 51.082031 38.542969 C 51.082031 39.070312 51.035156 39.574219 50.945312 40.039062 C 50.855469 40.484375 50.699219 40.875 50.488281 41.207031 C 50.285156 41.527344 50.011719 41.78125 49.679688 41.96875 Z M 53.820312 35.730469 C 53.582031 34.957031 53.214844 34.304688 52.738281 33.789062 C 52.261719 33.273438 51.660156 32.886719 50.949219 32.636719 C 50.253906 32.394531 49.445312 32.273438 48.546875 32.273438 C 47.601562 32.273438 46.757812 32.421875 46.035156 32.714844 C 45.304688 33.011719 44.683594 33.441406 44.1875 34 C 43.691406 34.550781 43.316406 35.230469 43.066406 36.015625 C 42.820312 36.785156 42.699219 37.664062 42.699219 38.625 C 42.699219 39.664062 42.8125 40.578125 43.042969 41.347656 C 43.277344 42.132812 43.636719 42.792969 44.109375 43.304688 C 44.585938 43.824219 45.1875 44.210938 45.898438 44.464844 C 46.59375 44.707031 47.414062 44.832031 48.335938 44.832031 C 49.273438 44.832031 50.113281 44.6875 50.839844 44.394531 C 51.566406 44.101562 52.191406 43.671875 52.6875 43.109375 C 53.183594 42.554688 53.558594 41.871094 53.804688 41.078125 C 54.054688 40.296875 54.175781 39.402344 54.175781 38.417969 C 54.175781 37.394531 54.058594 36.492188 53.820312 35.730469 " fill-opacity="1" fill-rule="nonzero"/></svg>