<svg xmlns="http://www.w3.org/2000/svg" xmlns:xlink="http://www.w3.org/1999/xlink" width="128" zoomAndPan="magnify" viewBox="0 0 96 95.999999" height="128" preserveAspectRatio="xMidYMid meet" version="1.0"><defs><clipPath id="id1"><path d="M 10.050781 10.050781 L 86.550781 10.050781 L 86.550781 86.550781 L 10.050781 86.550781 Z M 10.050781 10.050781 " clip-rule="nonzero"/></clipPath><clipPath id="id2"><path d="M 23.621094 23.894531 L 72.371094 23.894531 L 72.371094 72.644531 L 23.621094 72.644531 Z M 23.621094 23.894531 " clip-rule="nonzero"/></clipPath><clipPath id="id3"><path d="M 74 61 L 80 61 L 80 65 L 74 65 Z M 74 61 " clip-rule="nonzero"/></clipPath><clipPath id="id4"><path d="M 42.605469 65.320312 L 52.625 35.457031 L 85.332031 46.429688 L 75.3125 76.296875 Z M 42.605469 65.320312 " clip-rule="nonzero"/></clipPath><clipPath id="id5"><path d="M 42.605469 65.320312 L 52.625 35.457031 L 85.332031 46.429688 L 75.3125 76.296875 Z M 42.605469 65.320312 " clip-rule="nonzero"/></clipPath><clipPath id="id6"><path d="M 42.605469 65.320312 L 52.625 35.457031 L 85.332031 46.429688 L 75.3125 76.296875 Z M 42.605469 65.320312 " clip-rule="nonzero"/></clipPath><clipPath id="id7"><path d="M 76 56 L 82 56 L 82 60 L 76 60 Z M 76 56 " clip-rule="nonzero"/></clipPath><clipPath id="id8"><path d="M 42.605469 65.320312 L 52.625 35.457031 L 85.332031 46.429688 L 75.3125 76.296875 Z M 42.605469 65.320312 " clip-rule="nonzero"/></clipPath><clipPath id="id9"><path d="M 42.605469 65.320312 L 52.625 35.457031 L 85.332031 46.429688 L 75.3125 76.296875 Z M 42.605469 65.320312 " clip-rule="nonzero"/></clipPath><clipPath id="id10"><path d="M 42.605469 65.320312 L 52.625 35.457031 L 85.332031 46.429688 L 75.3125 76.296875 Z M 42.605469 65.320312 " clip-rule="nonzero"/></clipPath><clipPath id="id11"><path d="M 67 53 L 79 53 L 79 65 L 67 65 Z M 67 53 " clip-rule="nonzero"/></clipPath><clipPath id="id12"><path d="M 42.605469 65.320312 L 52.625 35.457031 L 85.332031 46.429688 L 75.3125 76.296875 Z M 42.605469 65.320312 " clip-rule="nonzero"/></clipPath><clipPath id="id13"><path d="M 42.605469 65.320312 L 52.625 35.457031 L 85.332031 46.429688 L 75.3125 76.296875 Z M 42.605469 65.320312 " clip-rule="nonzero"/></clipPath><clipPath id="id14"><path d="M 42.605469 65.320312 L 52.625 35.457031 L 85.332031 46.429688 L 75.3125 76.296875 Z M 42.605469 65.320312 " clip-rule="nonzero"/></clipPath><clipPath id="id15"><path d="M 67 53 L 79 53 L 79 61 L 67 61 Z M 67 53 " clip-rule="nonzero"/></clipPath><clipPath id="id16"><path d="M 42.605469 65.320312 L 52.625 35.457031 L 85.332031 46.429688 L 75.3125 76.296875 Z M 42.605469 65.320312 " clip-rule="nonzero"/></clipPath><clipPath id="id17"><path d="M 42.605469 65.320312 L 52.625 35.457031 L 85.332031 46.429688 L 75.3125 76.296875 Z M 42.605469 65.320312 " clip-rule="nonzero"/></clipPath><clipPath id="id18"><path d="M 42.605469 65.320312 L 52.625 35.457031 L 85.332031 46.429688 L 75.3125 76.296875 Z M 42.605469 65.320312 " clip-rule="nonzero"/></clipPath><clipPath id="id19"><path d="M 47 49 L 57 49 L 57 55 L 47 55 Z M 47 49 " clip-rule="nonzero"/></clipPath><clipPath id="id20"><path d="M 42.605469 65.320312 L 52.625 35.457031 L 85.332031 46.429688 L 75.3125 76.296875 Z M 42.605469 65.320312 " clip-rule="nonzero"/></clipPath><clipPath id="id21"><path d="M 42.605469 65.320312 L 52.625 35.457031 L 85.332031 46.429688 L 75.3125 76.296875 Z M 42.605469 65.320312 " clip-rule="nonzero"/></clipPath><clipPath id="id22"><path d="M 42.605469 65.320312 L 52.625 35.457031 L 85.332031 46.429688 L 75.3125 76.296875 Z M 42.605469 65.320312 " clip-rule="nonzero"/></clipPath><clipPath id="id23"><path d="M 47 49 L 57 49 L 57 54 L 47 54 Z M 47 49 " clip-rule="nonzero"/></clipPath><clipPath id="id24"><path d="M 42.605469 65.320312 L 52.625 35.457031 L 85.332031 46.429688 L 75.3125 76.296875 Z M 42.605469 65.320312 " clip-rule="nonzero"/></clipPath><clipPath id="id25"><path d="M 42.605469 65.320312 L 52.625 35.457031 L 85.332031 46.429688 L 75.3125 76.296875 Z M 42.605469 65.320312 " clip-rule="nonzero"/></clipPath><clipPath id="id26"><path d="M 42.605469 65.320312 L 52.625 35.457031 L 85.332031 46.429688 L 75.3125 76.296875 Z M 42.605469 65.320312 " clip-rule="nonzero"/></clipPath><clipPath id="id27"><path d="M 63 62 L 77 62 L 77 74 L 63 74 Z M 63 62 " clip-rule="nonzero"/></clipPath><clipPath id="id28"><path d="M 42.605469 65.320312 L 52.625 35.457031 L 85.332031 46.429688 L 75.3125 76.296875 Z M 42.605469 65.320312 " clip-rule="nonzero"/></clipPath><clipPath id="id29"><path d="M 42.605469 65.320312 L 52.625 35.457031 L 85.332031 46.429688 L 75.3125 76.296875 Z M 42.605469 65.320312 " clip-rule="nonzero"/></clipPath><clipPath id="id30"><path d="M 42.605469 65.320312 L 52.625 35.457031 L 85.332031 46.429688 L 75.3125 76.296875 Z M 42.605469 65.320312 " clip-rule="nonzero"/></clipPath><clipPath id="id31"><path d="M 68 42 L 84 42 L 84 51 L 68 51 Z M 68 42 " clip-rule="nonzero"/></clipPath><clipPath id="id32"><path d="M 42.605469 65.320312 L 52.625 35.457031 L 85.332031 46.429688 L 75.3125 76.296875 Z M 42.605469 65.320312 " clip-rule="nonzero"/></clipPath><clipPath id="id33"><path d="M 42.605469 65.320312 L 52.625 35.457031 L 85.332031 46.429688 L 75.3125 76.296875 Z M 42.605469 65.320312 " clip-rule="nonzero"/></clipPath><clipPath id="id34"><path d="M 42.605469 65.320312 L 52.625 35.457031 L 85.332031 46.429688 L 75.3125 76.296875 Z M 42.605469 65.320312 " clip-rule="nonzero"/></clipPath><clipPath id="id35"><path d="M 44 60 L 60 60 L 60 70 L 44 70 Z M 44 60 " clip-rule="nonzero"/></clipPath><clipPath id="id36"><path d="M 42.605469 65.320312 L 52.625 35.457031 L 85.332031 46.429688 L 75.3125 76.296875 Z M 42.605469 65.320312 " clip-rule="nonzero"/></clipPath><clipPath id="id37"><path d="M 42.605469 65.320312 L 52.625 35.457031 L 85.332031 46.429688 L 75.3125 76.296875 Z M 42.605469 65.320312 " clip-rule="nonzero"/></clipPath><clipPath id="id38"><path d="M 42.605469 65.320312 L 52.625 35.457031 L 85.332031 46.429688 L 75.3125 76.296875 Z M 42.605469 65.320312 " clip-rule="nonzero"/></clipPath><clipPath id="id39"><path d="M 51 38 L 65 38 L 65 49 L 51 49 Z M 51 38 " clip-rule="nonzero"/></clipPath><clipPath id="id40"><path d="M 42.605469 65.320312 L 52.625 35.457031 L 85.332031 46.429688 L 75.3125 76.296875 Z M 42.605469 65.320312 " clip-rule="nonzero"/></clipPath><clipPath id="id41"><path d="M 42.605469 65.320312 L 52.625 35.457031 L 85.332031 46.429688 L 75.3125 76.296875 Z M 42.605469 65.320312 " clip-rule="nonzero"/></clipPath><clipPath id="id42"><path d="M 42.605469 65.320312 L 52.625 35.457031 L 85.332031 46.429688 L 75.3125 76.296875 Z M 42.605469 65.320312 " clip-rule="nonzero"/></clipPath><clipPath id="id43"><path d="M 52 46 L 74 46 L 74 65 L 52 65 Z M 52 46 " clip-rule="nonzero"/></clipPath><clipPath id="id44"><path d="M 42.605469 65.320312 L 52.625 35.457031 L 85.332031 46.429688 L 75.3125 76.296875 Z M 42.605469 65.320312 " clip-rule="nonzero"/></clipPath><clipPath id="id45"><path d="M 42.605469 65.320312 L 52.625 35.457031 L 85.332031 46.429688 L 75.3125 76.296875 Z M 42.605469 65.320312 " clip-rule="nonzero"/></clipPath><clipPath id="id46"><path d="M 42.605469 65.320312 L 52.625 35.457031 L 85.332031 46.429688 L 75.3125 76.296875 Z M 42.605469 65.320312 " clip-rule="nonzero"/></clipPath><clipPath id="id47"><path d="M 52 46 L 74 46 L 74 59 L 52 59 Z M 52 46 " clip-rule="nonzero"/></clipPath><clipPath id="id48"><path d="M 42.605469 65.320312 L 52.625 35.457031 L 85.332031 46.429688 L 75.3125 76.296875 Z M 42.605469 65.320312 " clip-rule="nonzero"/></clipPath><clipPath id="id49"><path d="M 42.605469 65.320312 L 52.625 35.457031 L 85.332031 46.429688 L 75.3125 76.296875 Z M 42.605469 65.320312 " clip-rule="nonzero"/></clipPath><clipPath id="id50"><path d="M 42.605469 65.320312 L 52.625 35.457031 L 85.332031 46.429688 L 75.3125 76.296875 Z M 42.605469 65.320312 " clip-rule="nonzero"/></clipPath><clipPath id="id51"><path d="M 58 52 L 64 52 L 64 57 L 58 57 Z M 58 52 " clip-rule="nonzero"/></clipPath><clipPath id="id52"><path d="M 42.605469 65.320312 L 52.625 35.457031 L 85.332031 46.429688 L 75.3125 76.296875 Z M 42.605469 65.320312 " clip-rule="nonzero"/></clipPath><clipPath id="id53"><path d="M 42.605469 65.320312 L 52.625 35.457031 L 85.332031 46.429688 L 75.3125 76.296875 Z M 42.605469 65.320312 " clip-rule="nonzero"/></clipPath><clipPath id="id54"><path d="M 42.605469 65.320312 L 52.625 35.457031 L 85.332031 46.429688 L 75.3125 76.296875 Z M 42.605469 65.320312 " clip-rule="nonzero"/></clipPath><clipPath id="id55"><path d="M 58 52 L 64 52 L 64 56 L 58 56 Z M 58 52 " clip-rule="nonzero"/></clipPath><clipPath id="id56"><path d="M 42.605469 65.320312 L 52.625 35.457031 L 85.332031 46.429688 L 75.3125 76.296875 Z M 42.605469 65.320312 " clip-rule="nonzero"/></clipPath><clipPath id="id57"><path d="M 42.605469 65.320312 L 52.625 35.457031 L 85.332031 46.429688 L 75.3125 76.296875 Z M 42.605469 65.320312 " clip-rule="nonzero"/></clipPath><clipPath id="id58"><path d="M 42.605469 65.320312 L 52.625 35.457031 L 85.332031 46.429688 L 75.3125 76.296875 Z M 42.605469 65.320312 " clip-rule="nonzero"/></clipPath></defs><g clip-path="url(#id1)"><path fill="#000000" d="M 48.367188 10.058594 C 59.65625 10.074219 69.804688 14.992188 76.792969 22.792969 C 76.792969 22.796875 76.800781 22.800781 76.808594 22.804688 C 81.945312 28.546875 85.382812 35.851562 86.308594 43.917969 L 86.308594 43.949219 L 86.3125 44.007812 L 86.328125 44.117188 L 86.332031 44.160156 C 86.34375 44.296875 86.363281 44.4375 86.375 44.578125 L 86.375 44.621094 L 86.382812 44.675781 L 86.386719 44.734375 L 86.402344 44.84375 L 86.40625 44.902344 L 86.414062 44.957031 L 86.414062 45.003906 C 86.417969 45.085938 86.425781 45.164062 86.429688 45.246094 L 86.4375 45.3125 L 86.445312 45.367188 L 86.445312 45.40625 L 86.449219 45.464844 L 86.457031 45.519531 L 86.457031 45.578125 L 86.460938 45.632812 L 86.46875 45.6875 L 86.46875 45.746094 L 86.472656 45.800781 L 86.472656 45.855469 C 86.480469 45.914062 86.488281 45.972656 86.488281 46.03125 L 86.492188 46.097656 L 86.492188 46.15625 L 86.5 46.21875 L 86.5 46.277344 L 86.503906 46.339844 L 86.503906 46.402344 L 86.511719 46.480469 L 86.511719 46.539062 L 86.519531 46.59375 L 86.519531 46.648438 C 86.519531 46.6875 86.523438 46.726562 86.523438 46.765625 L 86.523438 46.828125 L 86.53125 46.890625 L 86.53125 47.011719 L 86.535156 47.074219 L 86.535156 47.199219 L 86.542969 47.257812 L 86.542969 47.390625 L 86.546875 47.449219 L 86.546875 47.75 L 86.554688 47.8125 L 86.554688 48.246094 C 86.554688 48.269531 86.554688 48.289062 86.554688 48.308594 L 86.554688 48.800781 L 86.546875 48.863281 L 86.546875 49.113281 L 86.542969 49.171875 L 86.542969 49.355469 L 86.535156 49.417969 L 86.535156 49.539062 L 86.53125 49.601562 L 86.53125 49.734375 L 86.523438 49.792969 L 86.523438 49.847656 C 86.523438 49.886719 86.519531 49.925781 86.519531 49.964844 L 86.519531 50.03125 L 86.511719 50.089844 L 86.511719 50.152344 L 86.503906 50.210938 L 86.503906 50.273438 L 86.5 50.335938 L 86.5 50.417969 L 86.492188 50.472656 L 86.492188 50.53125 L 86.488281 50.582031 C 86.488281 50.640625 86.480469 50.699219 86.472656 50.761719 L 86.472656 50.824219 L 86.46875 50.882812 L 86.46875 50.945312 L 86.460938 50.980469 L 86.457031 51.039062 L 86.457031 51.09375 L 86.449219 51.152344 L 86.445312 51.207031 L 86.445312 51.261719 L 86.4375 51.320312 L 86.429688 51.371094 C 86.425781 51.449219 86.417969 51.53125 86.414062 51.609375 L 86.414062 51.65625 L 86.40625 51.710938 L 86.402344 51.769531 L 86.394531 51.824219 L 86.386719 51.882812 L 86.382812 51.9375 L 86.375 51.992188 L 86.375 52.035156 C 86.363281 52.175781 86.34375 52.316406 86.332031 52.457031 L 86.328125 52.496094 L 86.320312 52.550781 L 86.3125 52.609375 L 86.308594 52.664062 L 86.308594 52.695312 C 85.382812 60.761719 81.945312 68.066406 76.808594 73.808594 C 76.800781 73.8125 76.792969 73.816406 76.792969 73.820312 C 69.785156 81.636719 59.613281 86.558594 48.304688 86.558594 C 36.996094 86.558594 26.824219 81.636719 19.8125 73.820312 C 19.8125 73.816406 19.808594 73.8125 19.800781 73.808594 C 14.664062 68.066406 11.226562 60.761719 10.300781 52.695312 L 10.300781 52.664062 L 10.296875 52.609375 L 10.289062 52.550781 L 10.28125 52.496094 L 10.277344 52.457031 C 10.265625 52.316406 10.246094 52.175781 10.234375 52.035156 L 10.234375 51.992188 L 10.226562 51.9375 L 10.222656 51.882812 L 10.214844 51.824219 L 10.207031 51.769531 L 10.203125 51.710938 L 10.203125 51.65625 L 10.195312 51.609375 C 10.191406 51.53125 10.183594 51.449219 10.179688 51.371094 L 10.171875 51.300781 L 10.164062 51.25 L 10.164062 51.207031 L 10.160156 51.152344 L 10.152344 51.09375 L 10.152344 51.039062 L 10.148438 50.980469 L 10.140625 50.925781 L 10.140625 50.867188 L 10.132812 50.8125 L 10.132812 50.761719 C 10.128906 50.699219 10.121094 50.640625 10.121094 50.582031 L 10.117188 50.519531 L 10.117188 50.457031 L 10.109375 50.394531 L 10.109375 50.335938 L 10.105469 50.273438 L 10.105469 50.210938 L 10.097656 50.132812 L 10.097656 50.078125 L 10.089844 50.019531 L 10.089844 49.964844 C 10.089844 49.925781 10.085938 49.886719 10.085938 49.847656 L 10.085938 49.785156 L 10.078125 49.722656 L 10.078125 49.601562 L 10.074219 49.539062 L 10.074219 49.417969 L 10.066406 49.355469 L 10.066406 49.164062 L 10.0625 49.109375 L 10.0625 48.800781 L 10.054688 48.738281 L 10.054688 48.367188 C 10.054688 48.347656 10.054688 48.328125 10.054688 48.308594 L 10.054688 47.875 L 10.0625 47.8125 L 10.0625 47.503906 L 10.066406 47.445312 L 10.066406 47.257812 L 10.074219 47.199219 L 10.074219 47.074219 L 10.078125 47.011719 L 10.078125 46.878906 L 10.085938 46.820312 L 10.085938 46.765625 C 10.085938 46.726562 10.089844 46.6875 10.089844 46.648438 L 10.089844 46.585938 L 10.097656 46.523438 L 10.097656 46.460938 L 10.105469 46.402344 L 10.105469 46.339844 L 10.109375 46.277344 L 10.109375 46.199219 L 10.117188 46.140625 L 10.117188 46.085938 L 10.121094 46.03125 C 10.121094 45.972656 10.128906 45.914062 10.132812 45.855469 L 10.132812 45.792969 L 10.140625 45.730469 L 10.140625 45.667969 L 10.148438 45.632812 L 10.152344 45.578125 L 10.152344 45.519531 L 10.160156 45.464844 L 10.164062 45.40625 L 10.164062 45.351562 L 10.171875 45.292969 L 10.179688 45.246094 C 10.183594 45.164062 10.191406 45.082031 10.195312 45.003906 L 10.203125 44.957031 L 10.203125 44.902344 L 10.207031 44.84375 L 10.222656 44.734375 L 10.226562 44.675781 L 10.234375 44.621094 L 10.234375 44.578125 C 10.246094 44.4375 10.265625 44.300781 10.277344 44.160156 L 10.28125 44.117188 L 10.296875 44.007812 L 10.300781 43.949219 L 10.300781 43.917969 C 11.226562 35.851562 14.664062 28.546875 19.800781 22.804688 C 19.808594 22.800781 19.8125 22.796875 19.8125 22.792969 C 26.808594 14.992188 36.960938 10.074219 48.242188 10.058594 Z M 49.539062 68.058594 L 49.539062 83.996094 C 52.777344 83.511719 55.734375 81.121094 58.210938 77.480469 C 59.75 75.234375 61.09375 72.511719 62.199219 69.421875 C 58.28125 68.609375 54.011719 68.132812 49.539062 68.058594 Z M 47.070312 68.058594 C 42.597656 68.132812 38.328125 68.609375 34.410156 69.421875 C 35.515625 72.511719 36.859375 75.234375 38.398438 77.480469 C 40.875 81.121094 43.832031 83.511719 47.070312 83.996094 Z M 32 69.976562 C 28.554688 70.839844 25.429688 71.972656 22.726562 73.320312 C 27.382812 78.082031 33.355469 81.550781 40.054688 83.132812 C 38.742188 81.976562 37.503906 80.546875 36.355469 78.871094 C 34.675781 76.40625 33.195312 73.394531 32 69.976562 Z M 64.609375 69.976562 C 63.414062 73.394531 61.933594 76.40625 60.253906 78.871094 C 59.105469 80.546875 57.867188 81.976562 56.554688 83.132812 C 63.253906 81.550781 69.226562 78.082031 73.882812 73.320312 C 71.179688 71.972656 68.050781 70.839844 64.609375 69.976562 Z M 28.574219 49.539062 L 12.539062 49.539062 L 12.546875 49.582031 L 12.546875 49.691406 L 12.554688 49.746094 L 12.554688 49.855469 L 12.558594 49.910156 L 12.558594 49.964844 L 12.566406 50.019531 L 12.566406 50.097656 L 12.570312 50.152344 L 12.570312 50.210938 L 12.578125 50.257812 L 12.578125 50.3125 L 12.582031 50.367188 L 12.582031 50.421875 L 12.589844 50.472656 L 12.589844 50.554688 L 12.597656 50.609375 L 12.597656 50.664062 L 12.601562 50.714844 L 12.601562 50.769531 L 12.609375 50.824219 L 12.613281 50.875 L 12.613281 50.929688 L 12.621094 50.984375 L 12.628906 51.035156 L 12.628906 51.066406 L 12.632812 51.121094 L 12.632812 51.171875 L 12.640625 51.222656 L 12.644531 51.277344 L 12.644531 51.332031 L 12.652344 51.382812 L 12.65625 51.4375 L 12.664062 51.488281 L 12.664062 51.542969 L 12.671875 51.585938 L 12.675781 51.625 L 12.675781 51.675781 L 12.683594 51.730469 L 12.6875 51.78125 L 12.695312 51.835938 L 12.703125 51.886719 L 12.707031 51.941406 L 12.707031 51.992188 L 12.714844 52.035156 L 12.71875 52.078125 C 12.71875 52.097656 12.726562 52.113281 12.726562 52.128906 L 12.730469 52.179688 L 12.738281 52.234375 L 12.746094 52.285156 L 12.75 52.339844 L 12.75 52.390625 L 12.757812 52.441406 L 12.761719 52.484375 C 12.769531 52.546875 12.78125 52.609375 12.789062 52.671875 L 12.792969 52.734375 L 12.800781 52.785156 L 12.804688 52.835938 L 12.8125 52.886719 L 12.820312 52.933594 C 12.832031 53.011719 12.84375 53.09375 12.847656 53.175781 L 12.863281 53.234375 L 12.867188 53.285156 L 12.875 53.332031 L 12.878906 53.378906 C 12.890625 53.476562 12.910156 53.574219 12.921875 53.675781 L 12.9375 53.777344 C 13.964844 60.445312 16.835938 66.507812 21.003906 71.429688 C 23.949219 69.894531 27.402344 68.605469 31.234375 67.628906 C 29.640625 62.300781 28.679688 56.132812 28.574219 49.539062 Z M 84.054688 49.742188 L 84.0625 49.691406 L 84.0625 49.582031 L 84.070312 49.539062 L 68.035156 49.539062 C 67.929688 56.132812 66.96875 62.300781 65.375 67.628906 C 69.207031 68.605469 72.660156 69.894531 75.605469 71.429688 C 79.78125 66.507812 82.644531 60.445312 83.671875 53.777344 L 83.679688 53.722656 L 83.6875 53.675781 C 83.703125 53.574219 83.714844 53.476562 83.730469 53.378906 L 83.734375 53.328125 L 83.742188 53.273438 L 83.753906 53.222656 L 83.761719 53.175781 C 83.773438 53.09375 83.777344 53.011719 83.789062 52.933594 L 83.796875 52.875 L 83.804688 52.824219 L 83.808594 52.773438 L 83.816406 52.722656 L 83.820312 52.671875 C 83.828125 52.609375 83.839844 52.546875 83.847656 52.484375 L 83.851562 52.425781 L 83.859375 52.375 L 83.863281 52.320312 L 83.878906 52.21875 L 83.878906 52.171875 L 83.882812 52.128906 C 83.882812 52.113281 83.890625 52.097656 83.890625 52.078125 L 83.894531 52.027344 L 83.902344 51.972656 L 83.90625 51.921875 L 83.914062 51.867188 L 83.914062 51.816406 L 83.921875 51.761719 L 83.925781 51.710938 L 83.933594 51.675781 L 83.933594 51.625 L 83.9375 51.574219 L 83.945312 51.519531 L 83.953125 51.46875 L 83.953125 51.414062 L 83.957031 51.359375 L 83.964844 51.308594 L 83.964844 51.277344 L 83.96875 51.222656 L 83.976562 51.171875 L 83.976562 51.121094 L 83.980469 51.066406 L 83.988281 51.011719 L 83.988281 50.957031 L 83.996094 50.90625 L 84 50.851562 L 84 50.824219 L 84.007812 50.769531 L 84.007812 50.714844 L 84.011719 50.664062 L 84.011719 50.609375 L 84.019531 50.554688 L 84.019531 50.5 L 84.023438 50.445312 L 84.023438 50.367188 L 84.03125 50.3125 L 84.03125 50.257812 L 84.039062 50.207031 L 84.039062 50.152344 L 84.042969 50.097656 L 84.042969 50.042969 L 84.050781 49.988281 L 84.050781 49.878906 L 84.054688 49.855469 Z M 47.070312 65.589844 L 47.070312 49.539062 L 31.042969 49.539062 C 31.148438 55.941406 32.078125 61.925781 33.632812 67.070312 C 37.785156 66.1875 42.320312 65.667969 47.070312 65.589844 Z M 65.566406 49.539062 L 49.539062 49.539062 L 49.539062 65.589844 C 54.289062 65.667969 58.824219 66.1875 62.976562 67.070312 C 64.53125 61.925781 65.460938 55.941406 65.566406 49.539062 Z M 83.671875 42.835938 C 82.644531 36.167969 79.78125 30.105469 75.605469 25.183594 C 72.660156 26.71875 69.207031 28.011719 65.375 28.988281 C 66.96875 34.3125 67.929688 40.480469 68.035156 47.074219 L 84.070312 47.074219 L 84.0625 47.03125 L 84.0625 46.921875 L 84.054688 46.867188 L 84.054688 46.761719 L 84.050781 46.707031 L 84.050781 46.652344 L 84.042969 46.597656 L 84.042969 46.515625 L 84.039062 46.460938 L 84.039062 46.40625 L 84.03125 46.355469 L 84.03125 46.300781 L 84.023438 46.246094 L 84.023438 46.195312 L 84.019531 46.140625 L 84.019531 46.058594 L 84.011719 46.003906 L 84.011719 45.949219 L 84.007812 45.898438 L 84.007812 45.84375 L 84 45.792969 L 83.996094 45.738281 L 83.996094 45.683594 L 83.988281 45.628906 L 83.980469 45.578125 L 83.980469 45.546875 L 83.976562 45.496094 L 83.976562 45.441406 L 83.96875 45.390625 L 83.964844 45.335938 L 83.964844 45.285156 L 83.957031 45.230469 L 83.953125 45.179688 L 83.945312 45.125 L 83.945312 45.074219 L 83.9375 45.027344 L 83.933594 44.988281 L 83.933594 44.9375 L 83.925781 44.886719 L 83.921875 44.832031 L 83.914062 44.777344 L 83.90625 44.726562 L 83.902344 44.675781 L 83.902344 44.625 L 83.894531 44.578125 L 83.890625 44.535156 C 83.890625 44.519531 83.882812 44.5 83.882812 44.484375 L 83.878906 44.433594 L 83.871094 44.382812 L 83.863281 44.328125 L 83.859375 44.277344 L 83.859375 44.226562 L 83.851562 44.175781 L 83.847656 44.128906 C 83.839844 44.066406 83.828125 44.003906 83.820312 43.941406 L 83.816406 43.878906 L 83.808594 43.828125 L 83.804688 43.777344 L 83.796875 43.726562 L 83.789062 43.679688 C 83.777344 43.601562 83.773438 43.519531 83.761719 43.441406 L 83.746094 43.382812 L 83.742188 43.332031 L 83.734375 43.28125 L 83.730469 43.234375 C 83.714844 43.136719 83.703125 43.039062 83.6875 42.941406 L 83.679688 42.886719 Z M 62.976562 29.546875 C 58.824219 30.425781 54.289062 30.945312 49.539062 31.023438 L 49.539062 47.074219 L 65.566406 47.074219 C 65.460938 40.671875 64.53125 34.6875 62.976562 29.546875 Z M 31.234375 28.988281 C 27.402344 28.011719 23.949219 26.71875 21.003906 25.183594 C 16.835938 30.105469 13.964844 36.167969 12.9375 42.835938 L 12.929688 42.890625 L 12.921875 42.941406 C 12.910156 43.039062 12.890625 43.136719 12.878906 43.234375 L 12.875 43.289062 L 12.867188 43.339844 L 12.855469 43.390625 L 12.847656 43.441406 C 12.84375 43.519531 12.832031 43.601562 12.820312 43.679688 L 12.8125 43.738281 L 12.804688 43.789062 L 12.800781 43.839844 L 12.792969 43.890625 L 12.789062 43.941406 C 12.78125 44.003906 12.769531 44.066406 12.761719 44.128906 L 12.757812 44.1875 L 12.75 44.242188 L 12.746094 44.292969 L 12.730469 44.394531 L 12.730469 44.441406 L 12.726562 44.484375 C 12.726562 44.5 12.71875 44.519531 12.71875 44.535156 L 12.714844 44.585938 L 12.707031 44.640625 L 12.703125 44.691406 L 12.695312 44.746094 L 12.695312 44.800781 L 12.6875 44.851562 L 12.683594 44.902344 L 12.675781 44.9375 L 12.675781 44.988281 L 12.671875 45.039062 L 12.65625 45.148438 L 12.65625 45.199219 L 12.652344 45.253906 L 12.644531 45.308594 L 12.644531 45.335938 L 12.640625 45.390625 L 12.632812 45.441406 L 12.632812 45.496094 L 12.628906 45.546875 L 12.621094 45.601562 L 12.621094 45.65625 L 12.613281 45.710938 L 12.609375 45.765625 L 12.609375 45.792969 L 12.601562 45.84375 L 12.601562 45.898438 L 12.597656 45.949219 L 12.597656 46.003906 L 12.589844 46.058594 L 12.589844 46.113281 L 12.582031 46.167969 L 12.582031 46.246094 L 12.578125 46.300781 L 12.578125 46.355469 L 12.570312 46.40625 L 12.570312 46.460938 L 12.566406 46.515625 L 12.566406 46.570312 L 12.558594 46.625 L 12.558594 46.734375 L 12.554688 46.761719 L 12.554688 46.871094 L 12.546875 46.921875 L 12.546875 47.03125 L 12.539062 47.074219 L 28.574219 47.074219 C 28.679688 40.480469 29.640625 34.3125 31.234375 28.988281 Z M 33.632812 29.546875 C 32.078125 34.6875 31.148438 40.671875 31.042969 47.074219 L 47.070312 47.074219 L 47.070312 31.023438 C 42.320312 30.945312 37.785156 30.425781 33.632812 29.546875 Z M 49.539062 12.617188 L 49.539062 28.554688 C 54.011719 28.480469 58.28125 28.003906 62.199219 27.191406 C 61.09375 24.105469 59.75 21.382812 58.210938 19.132812 C 55.734375 15.492188 52.777344 13.105469 49.539062 12.617188 Z M 47.070312 12.617188 C 43.832031 13.105469 40.875 15.492188 38.398438 19.132812 C 36.859375 21.382812 35.515625 24.105469 34.410156 27.191406 C 38.328125 28.003906 42.597656 28.480469 47.070312 28.554688 Z M 40.054688 13.480469 C 33.355469 15.0625 27.382812 18.53125 22.726562 23.292969 C 25.429688 24.640625 28.554688 25.773438 32 26.636719 C 33.195312 23.21875 34.675781 20.210938 36.355469 17.742188 C 37.503906 16.066406 38.742188 14.636719 40.054688 13.480469 Z M 56.554688 13.480469 C 57.867188 14.636719 59.105469 16.066406 60.253906 17.742188 C 61.933594 20.210938 63.414062 23.21875 64.609375 26.636719 C 68.050781 25.773438 71.179688 24.640625 73.882812 23.292969 C 69.226562 18.53125 63.253906 15.066406 56.554688 13.480469 Z M 56.554688 13.480469 " fill-opacity="1" fill-rule="evenodd"/></g><g clip-path="url(#id2)"><path fill="#000000" d="M 72.363281 41.535156 C 72.351562 41.507812 72.335938 41.496094 72.304688 41.507812 L 69.488281 42.257812 L 63.464844 32.601562 L 65.785156 30.277344 C 65.804688 30.257812 65.804688 30.226562 65.785156 30.207031 C 65.765625 30.1875 65.734375 30.1875 65.714844 30.207031 L 63.902344 32.023438 C 63.902344 32.023438 63.894531 32.023438 63.894531 32.035156 L 63.378906 32.550781 C 63.300781 32.621094 63.203125 32.660156 63.09375 32.648438 C 61.292969 32.640625 54.539062 25.773438 54.089844 25.316406 L 54.449219 23.96875 C 54.460938 23.9375 54.441406 23.910156 54.410156 23.910156 C 54.382812 23.898438 54.351562 23.917969 54.351562 23.949219 L 53.992188 25.285156 L 41.710938 24.640625 L 41.527344 23.9375 C 41.515625 23.917969 41.496094 23.910156 41.46875 23.910156 C 41.4375 23.917969 41.429688 23.949219 41.4375 23.96875 L 42.128906 26.566406 L 31.671875 31.730469 L 30.152344 30.207031 C 30.132812 30.1875 30.105469 30.1875 30.085938 30.207031 C 30.066406 30.226562 30.066406 30.257812 30.085938 30.277344 L 31.605469 31.800781 L 27.238281 42.484375 L 23.691406 41.527344 C 23.660156 41.515625 23.640625 41.535156 23.632812 41.554688 C 23.621094 41.585938 23.640625 41.605469 23.671875 41.613281 L 27.21875 42.570312 L 26.128906 53.898438 L 23.660156 54.5625 C 23.632812 54.570312 23.621094 54.601562 23.632812 54.621094 C 23.640625 54.640625 23.660156 54.660156 23.679688 54.660156 L 23.691406 54.660156 L 26.148438 53.996094 L 31.15625 64.835938 L 30.144531 65.851562 C 30.125 65.871094 30.125 65.898438 30.144531 65.917969 C 30.152344 65.929688 30.164062 65.929688 30.171875 65.929688 C 30.183594 65.929688 30.203125 65.917969 30.203125 65.910156 L 31.214844 64.894531 L 41.722656 71.125 L 41.332031 72.578125 C 41.320312 72.609375 41.339844 72.628906 41.359375 72.636719 L 41.371094 72.636719 C 41.390625 72.636719 41.410156 72.617188 41.417969 72.597656 L 41.808594 71.144531 L 53.699219 69.894531 L 54.421875 72.597656 C 54.429688 72.617188 54.449219 72.636719 54.46875 72.636719 L 54.480469 72.636719 C 54.507812 72.628906 54.519531 72.609375 54.519531 72.578125 L 53.796875 69.875 L 63.785156 64.0625 L 65.746094 66.027344 C 65.753906 66.035156 65.765625 66.035156 65.773438 66.035156 C 65.785156 66.035156 65.792969 66.027344 65.804688 66.027344 C 65.824219 66.007812 65.824219 65.976562 65.804688 65.957031 L 63.84375 63.996094 L 69.46875 53.9375 L 72.109375 54.648438 L 72.121094 54.648438 C 72.140625 54.648438 72.160156 54.628906 72.167969 54.609375 C 72.179688 54.582031 72.160156 54.5625 72.128906 54.550781 L 69.488281 53.847656 L 69.488281 42.347656 L 72.304688 41.59375 C 72.351562 41.585938 72.371094 41.554688 72.363281 41.535156 Z M 63.398438 32.667969 L 69.390625 42.277344 L 67.832031 42.699219 L 59.976562 36.097656 Z M 39.449219 50.421875 L 40.289062 55.683594 L 39.140625 56.835938 L 38.378906 50.703125 Z M 38.386719 50.605469 L 39.441406 46.234375 L 39.441406 50.324219 Z M 52.949219 49.386719 L 52.257812 46.976562 L 53.339844 46.683594 L 54.410156 49.777344 Z M 54.429688 49.882812 L 53.777344 53.878906 L 52.957031 53.058594 L 52.957031 49.492188 Z M 47.109375 47.210938 L 47.636719 47.210938 L 47.832031 47.933594 Z M 47.773438 48 L 46.585938 47.679688 L 46.996094 47.21875 Z M 47.773438 47.308594 L 48.035156 47.542969 L 48.015625 47.609375 L 47.941406 47.921875 Z M 47.726562 47.132812 L 47.316406 45.589844 L 48.554688 45.589844 L 48.054688 47.433594 Z M 48.054688 47.835938 L 48.59375 45.84375 L 48.710938 47.257812 L 48.046875 47.921875 Z M 50.21875 45.871094 L 51.097656 47.191406 L 48.09375 48 Z M 48.796875 47.160156 L 48.671875 45.558594 L 49.117188 43.890625 L 50.171875 45.785156 Z M 48.582031 45.492188 L 47.285156 45.492188 L 46.605469 42.953125 L 49.03125 43.800781 Z M 47.617188 47.101562 L 47.011719 47.101562 L 44.898438 44.984375 L 47.207031 45.578125 Z M 46.925781 47.152344 L 46.476562 47.648438 L 42.882812 46.683594 L 44.734375 44.953125 Z M 46.527344 47.765625 L 47.746094 48.089844 L 46.195312 48.507812 Z M 47.773438 48.1875 L 46.351562 49.609375 L 46.164062 48.613281 Z M 47.84375 48.253906 L 47.160156 50.792969 L 46.378906 49.71875 Z M 47.941406 48.285156 L 48.621094 50.820312 L 47.257812 50.839844 Z M 48.027344 48.253906 L 49.617188 49.84375 L 48.699219 50.773438 Z M 48.09375 48.1875 L 51.292969 49.042969 L 49.695312 49.785156 Z M 48.113281 48.089844 L 51.136719 47.277344 L 51.378906 48.964844 Z M 51.234375 47.257812 L 52.167969 47.003906 L 52.84375 49.355469 L 51.488281 48.996094 Z M 51.195312 47.160156 L 50.289062 45.792969 L 51.585938 44.496094 L 52.148438 46.90625 Z M 50.238281 45.714844 L 49.148438 43.761719 L 49.46875 42.550781 L 51.535156 44.417969 Z M 49.058594 43.695312 L 46.574219 42.824219 L 46.097656 41.058594 L 49.382812 42.484375 Z M 47.179688 45.472656 L 44.761719 44.847656 L 43.5625 43.644531 L 46.507812 42.933594 Z M 44.664062 44.886719 L 42.765625 46.652344 L 42.375 46.546875 L 43.476562 43.695312 Z M 46.429688 47.738281 L 46.066406 48.539062 L 43.496094 49.230469 L 42.851562 46.78125 Z M 43.503906 49.328125 L 46.066406 48.632812 L 46.261719 49.6875 L 43.046875 52.910156 Z M 46.3125 49.785156 L 47.128906 50.910156 L 46.011719 55.097656 L 43.058594 53.046875 Z M 47.226562 50.9375 L 48.640625 50.917969 L 49.519531 54.210938 L 46.105469 55.097656 Z M 48.730469 50.890625 L 49.683594 49.921875 L 52.8125 53.058594 L 49.617188 54.179688 Z M 49.773438 49.863281 L 51.4375 49.082031 L 52.859375 49.464844 L 52.859375 52.960938 Z M 52.238281 46.886719 L 51.664062 44.425781 L 52.96875 43.117188 L 53.320312 46.605469 Z M 51.613281 44.339844 L 49.5 42.445312 L 50.191406 39.847656 L 52.9375 43.011719 Z M 49.410156 42.386719 L 46.066406 40.929688 L 45.503906 38.820312 L 50.101562 39.777344 Z M 46.476562 42.835938 L 43.484375 43.566406 L 41.984375 42.0625 L 46 41.046875 Z M 43.40625 43.625 L 42.277344 46.527344 L 39.558594 45.792969 L 41.886719 42.101562 Z M 42.34375 46.644531 L 42.746094 46.75 L 43.40625 49.257812 L 41.195312 49.855469 Z M 43.40625 49.355469 L 42.941406 53.027344 L 42.003906 53.964844 L 41.175781 49.953125 Z M 41.917969 54.054688 L 40.367188 55.605469 L 39.539062 50.402344 L 41.078125 49.980469 Z M 41.964844 54.132812 L 45.394531 57.363281 L 44.695312 59.980469 L 40.394531 55.695312 Z M 42.042969 54.0625 L 42.988281 53.117188 L 45.992188 55.195312 L 45.433594 57.265625 Z M 46.078125 55.214844 L 49.539062 54.308594 L 50.152344 56.613281 L 45.511719 57.285156 Z M 49.636719 54.277344 L 52.890625 53.136719 L 53.738281 53.984375 L 50.25 56.582031 Z M 53.808594 54.042969 L 54.90625 55.148438 L 50.472656 56.523438 Z M 53.863281 53.964844 L 54.527344 49.914062 L 56.808594 50.527344 L 54.984375 55.089844 Z M 54.527344 49.816406 L 53.4375 46.664062 L 56.808594 45.753906 L 56.808594 50.421875 Z M 53.417969 46.566406 L 53.054688 43.019531 L 54.480469 41.59375 L 56.789062 45.65625 Z M 53.007812 42.941406 L 50.21875 39.730469 L 50.960938 36.945312 L 54.410156 41.515625 Z M 50.132812 39.679688 L 45.472656 38.722656 L 44.871094 36.46875 L 50.882812 36.886719 Z M 45.972656 40.941406 L 41.898438 41.976562 L 40.054688 40.128906 L 45.394531 38.820312 Z M 41.820312 42.035156 L 39.546875 45.628906 L 40.007812 40.21875 Z M 42.246094 46.613281 L 41.078125 49.882812 L 39.539062 50.292969 L 39.539062 45.890625 Z M 40.335938 55.773438 L 44.675781 60.097656 L 44.441406 60.96875 L 39.167969 56.945312 Z M 44.773438 60.117188 L 50.035156 58.730469 L 44.546875 60.96875 Z M 44.800781 60.011719 L 45.503906 57.394531 L 50.191406 56.710938 L 50.660156 58.46875 Z M 50.289062 56.691406 L 54.996094 55.234375 L 56.507812 56.75 L 50.757812 58.449219 Z M 55.0625 55.167969 L 56.90625 50.558594 L 58.09375 50.878906 L 56.574219 56.679688 Z M 56.90625 50.449219 L 56.90625 45.734375 L 58.933594 45.1875 L 58.113281 50.773438 Z M 58.914062 45.089844 L 56.875 45.636719 L 54.546875 41.535156 L 56.253906 39.828125 Z M 56.945312 40.988281 L 59.332031 44.984375 L 59.011719 45.070312 Z M 54.488281 41.457031 L 51.117188 36.984375 L 56.175781 39.757812 Z M 51 36.820312 L 51.664062 34.339844 L 56.066406 39.59375 Z M 50.902344 36.789062 L 44.839844 36.359375 L 44.175781 33.890625 L 51.566406 34.269531 Z M 45.375 38.722656 L 39.976562 40.050781 L 38.632812 38.703125 L 44.773438 36.46875 Z M 39.910156 40.121094 L 39.429688 45.753906 L 36.234375 44.894531 L 38.5625 38.761719 Z M 39.421875 45.863281 L 38.269531 50.636719 L 35.183594 51.464844 L 36.214844 45.003906 Z M 38.269531 50.734375 L 39.042969 56.925781 L 37.929688 58.039062 L 35.183594 51.5625 Z M 39.101562 57.011719 L 44.410156 61.074219 L 44.050781 62.414062 L 37.988281 58.125 Z M 44.507812 61.085938 L 50.679688 58.566406 L 51.398438 61.28125 L 44.136719 62.421875 Z M 50.777344 58.535156 L 56.585938 56.828125 L 57.082031 57.324219 L 51.496094 61.242188 Z M 56.652344 56.757812 L 58.183594 50.898438 L 58.914062 51.09375 L 57.140625 57.246094 Z M 58.203125 50.800781 L 59.03125 45.167969 L 59.351562 45.082031 L 58.921875 50.996094 Z M 56.339844 39.808594 L 56.3125 39.757812 L 57.5 38.566406 L 62.34375 44.164062 L 59.421875 44.945312 Z M 56.261719 39.679688 L 51.691406 34.230469 L 52.140625 32.550781 L 57.441406 38.5 Z M 51.605469 34.183594 L 44.167969 33.792969 L 43.613281 31.703125 L 52.0625 32.472656 Z M 44.753906 36.378906 L 38.5625 38.636719 L 36.925781 36.996094 L 44.097656 33.910156 Z M 38.496094 38.703125 L 36.148438 44.886719 L 34.050781 44.320312 L 36.859375 37.0625 Z M 36.128906 44.972656 L 35.085938 51.496094 L 34.316406 51.699219 L 34.03125 44.417969 Z M 35.09375 51.59375 L 37.863281 58.117188 L 36.585938 59.394531 L 34.324219 51.796875 Z M 37.921875 58.195312 L 44.03125 62.511719 L 43.574219 64.21875 L 36.632812 59.484375 Z M 44.128906 62.53125 L 51.4375 61.378906 L 51.613281 62.042969 L 43.671875 64.230469 Z M 51.527344 61.339844 L 57.148438 57.394531 L 58.691406 58.9375 L 51.703125 62.003906 Z M 57.21875 57.324219 L 59.011719 51.113281 L 61.535156 51.789062 L 58.777344 58.867188 Z M 59.019531 51.015625 L 59.449219 45.050781 L 62.382812 44.261719 L 61.546875 51.699219 Z M 57.578125 38.5 L 58.535156 37.542969 L 65.082031 43.429688 L 62.453125 44.132812 Z M 57.511719 38.429688 L 52.167969 32.433594 L 52.675781 30.550781 L 58.464844 37.472656 Z M 52.082031 32.386719 L 43.574219 31.613281 L 42.8125 28.773438 L 52.589844 30.480469 Z M 44.0625 33.820312 L 36.839844 36.917969 L 35.328125 35.394531 L 43.503906 31.730469 Z M 36.78125 36.984375 L 33.953125 44.289062 L 31.917969 43.742188 L 35.261719 35.460938 Z M 33.945312 44.386719 L 34.226562 51.71875 L 31.9375 52.335938 L 31.898438 43.839844 Z M 34.238281 51.816406 L 36.507812 59.464844 L 34.9375 61.035156 L 31.945312 52.433594 Z M 36.566406 59.542969 L 43.542969 64.308594 L 43.144531 65.800781 L 34.996094 61.113281 Z M 43.640625 64.328125 L 51.632812 62.128906 L 52.21875 64.308594 L 43.242188 65.832031 Z M 51.730469 62.101562 L 58.777344 59.023438 L 60.5625 60.8125 L 52.316406 64.277344 Z M 58.84375 58.957031 L 61.621094 51.816406 L 63.027344 52.199219 L 60.628906 60.742188 Z M 61.640625 51.71875 L 62.480469 44.230469 L 65.113281 43.527344 L 63.035156 52.101562 Z M 58.601562 37.472656 L 59.917969 36.15625 L 67.722656 42.726562 L 65.199219 43.402344 Z M 58.535156 37.40625 L 52.707031 30.433594 L 53.289062 28.234375 L 59.828125 36.097656 Z M 52.617188 30.382812 L 42.792969 28.664062 L 42.246094 26.652344 L 53.210938 28.15625 Z M 43.476562 31.632812 L 35.25 35.324219 L 34.179688 34.25 L 42.714844 28.792969 Z M 35.183594 35.394531 L 31.820312 43.722656 L 29.375 43.070312 L 34.109375 34.320312 Z M 31.808594 43.8125 L 31.847656 52.355469 L 29.414062 53.007812 L 29.355469 43.148438 Z M 31.859375 52.460938 L 34.859375 61.125 L 33.15625 62.832031 L 29.433594 53.105469 Z M 34.929688 61.191406 L 43.125 65.910156 L 42.558594 68.019531 L 33.222656 62.902344 Z M 43.210938 65.929688 L 52.238281 64.394531 L 53.027344 67.34375 L 42.648438 68.027344 Z M 52.34375 64.375 L 60.648438 60.890625 L 62.722656 62.96875 L 53.132812 67.316406 Z M 60.695312 60.820312 L 63.113281 52.226562 L 65.675781 52.921875 L 62.773438 62.910156 Z M 63.144531 52.128906 L 65.21875 43.507812 L 67.753906 42.824219 L 65.707031 52.824219 Z M 54.050781 25.433594 C 54.808594 26.214844 61.261719 32.738281 63.085938 32.757812 C 63.113281 32.757812 63.152344 32.757812 63.183594 32.746094 L 59.90625 36.027344 L 53.328125 28.117188 Z M 41.742188 24.75 L 53.960938 25.375 L 53.242188 28.058594 L 42.226562 26.546875 Z M 42.148438 26.671875 L 42.6875 28.695312 L 34.101562 34.183594 L 31.742188 31.808594 Z M 31.683594 31.878906 L 34.042969 34.242188 L 29.277344 43.03125 L 27.335938 42.511719 Z M 27.316406 42.609375 L 29.257812 43.128906 L 29.324219 53.039062 L 26.234375 53.867188 Z M 26.246094 53.964844 L 29.34375 53.136719 L 33.085938 62.902344 L 31.234375 64.757812 Z M 41.75 71.035156 L 31.292969 64.835938 L 33.144531 62.980469 L 42.53125 68.117188 Z M 41.847656 71.046875 L 42.628906 68.125 L 53.054688 67.433594 L 53.691406 69.796875 Z M 53.789062 69.765625 L 53.164062 67.414062 L 62.800781 63.039062 L 63.738281 63.976562 Z M 63.796875 63.917969 L 62.859375 62.980469 L 65.785156 52.941406 L 69.402344 53.90625 Z M 69.421875 53.808594 L 65.804688 52.84375 L 67.859375 42.796875 L 69.421875 42.375 Z M 69.421875 53.808594 " fill-opacity="1" fill-rule="nonzero"/></g><g clip-path="url(#id3)"><g clip-path="url(#id4)"><g clip-path="url(#id5)"><g clip-path="url(#id6)"><path fill="#2b2256" d="M 79.503906 63.808594 C 79.328125 64.328125 78.757812 64.605469 78.230469 64.425781 L 75.128906 63.386719 C 74.601562 63.210938 74.3125 62.644531 74.488281 62.125 C 74.660156 61.605469 75.230469 61.328125 75.761719 61.503906 L 78.859375 62.546875 C 79.390625 62.722656 79.679688 63.289062 79.503906 63.808594 Z M 79.503906 63.808594 " fill-opacity="1" fill-rule="nonzero"/></g></g></g></g><g clip-path="url(#id7)"><g clip-path="url(#id8)"><g clip-path="url(#id9)"><g clip-path="url(#id10)"><path fill="#001035" d="M 81.144531 58.917969 C 80.96875 59.4375 80.398438 59.714844 79.871094 59.539062 L 76.769531 58.496094 C 76.242188 58.320312 75.953125 57.753906 76.128906 57.234375 C 76.300781 56.714844 76.871094 56.4375 77.402344 56.617188 L 80.5 57.65625 C 81.03125 57.832031 81.320312 58.398438 81.144531 58.917969 Z M 81.144531 58.917969 " fill-opacity="1" fill-rule="nonzero"/></g></g></g></g><g clip-path="url(#id11)"><g clip-path="url(#id12)"><g clip-path="url(#id13)"><g clip-path="url(#id14)"><path fill="#392e6e" d="M 78.023438 60.589844 C 77.085938 63.394531 73.996094 64.894531 71.144531 63.9375 C 68.292969 62.980469 66.734375 59.921875 67.675781 57.121094 C 68.613281 54.316406 71.703125 52.816406 74.554688 53.773438 C 77.40625 54.730469 78.964844 57.789062 78.023438 60.589844 Z M 78.023438 60.589844 " fill-opacity="1" fill-rule="nonzero"/></g></g></g></g><g clip-path="url(#id15)"><g clip-path="url(#id16)"><g clip-path="url(#id17)"><g clip-path="url(#id18)"><path fill="#2b2256" d="M 67.675781 57.121094 L 78.023438 60.589844 C 78.964844 57.789062 77.40625 54.730469 74.554688 53.773438 C 71.703125 52.816406 68.613281 54.316406 67.675781 57.121094 Z M 67.675781 57.121094 " fill-opacity="1" fill-rule="nonzero"/></g></g></g></g><g clip-path="url(#id19)"><g clip-path="url(#id20)"><g clip-path="url(#id21)"><g clip-path="url(#id22)"><path fill="#fff4f4" d="M 56.878906 53.496094 C 56.703125 54.015625 56.132812 54.292969 55.605469 54.117188 L 48.257812 51.652344 C 47.730469 51.472656 47.441406 50.910156 47.617188 50.390625 C 47.789062 49.871094 48.359375 49.59375 48.890625 49.769531 L 56.238281 52.234375 C 56.765625 52.410156 57.054688 52.976562 56.878906 53.496094 Z M 56.878906 53.496094 " fill-opacity="1" fill-rule="nonzero"/></g></g></g></g><g clip-path="url(#id23)"><g clip-path="url(#id24)"><g clip-path="url(#id25)"><g clip-path="url(#id26)"><path fill="#f6efea" d="M 47.617188 50.390625 L 56.878906 53.496094 C 57.054688 52.976562 56.765625 52.410156 56.238281 52.234375 L 48.890625 49.769531 C 48.359375 49.59375 47.789062 49.871094 47.617188 50.390625 Z M 47.617188 50.390625 " fill-opacity="1" fill-rule="nonzero"/></g></g></g></g><g clip-path="url(#id27)"><g clip-path="url(#id28)"><g clip-path="url(#id29)"><g clip-path="url(#id30)"><path fill="#392e6e" d="M 76.074219 72.460938 C 75.933594 72.875 75.523438 73.160156 75.058594 73.128906 L 64.167969 72.40625 C 63.609375 72.367188 63.183594 71.894531 63.214844 71.347656 L 63.65625 63.71875 C 63.683594 63.171875 64.160156 62.757812 64.71875 62.792969 C 65.273438 62.832031 65.699219 63.304688 65.667969 63.855469 L 65.289062 70.488281 L 75.171875 71.144531 C 75.726562 71.183594 76.152344 71.65625 76.121094 72.203125 C 76.117188 72.292969 76.101562 72.378906 76.074219 72.460938 Z M 76.074219 72.460938 " fill-opacity="1" fill-rule="nonzero"/></g></g></g></g><g clip-path="url(#id31)"><g clip-path="url(#id32)"><g clip-path="url(#id33)"><g clip-path="url(#id34)"><path fill="#2b2256" d="M 83.625 49.949219 C 83.597656 50.027344 83.5625 50.109375 83.511719 50.179688 C 83.207031 50.636719 82.582031 50.757812 82.113281 50.453125 L 73.835938 45.015625 L 70.136719 50.539062 C 69.832031 50.992188 69.207031 51.113281 68.738281 50.808594 C 68.273438 50.503906 68.144531 49.886719 68.449219 49.429688 L 72.699219 43.082031 C 73.003906 42.625 73.628906 42.503906 74.097656 42.8125 L 83.21875 48.800781 C 83.609375 49.058594 83.765625 49.53125 83.625 49.949219 Z M 83.625 49.949219 " fill-opacity="1" fill-rule="nonzero"/></g></g></g></g><g clip-path="url(#id35)"><g clip-path="url(#id36)"><g clip-path="url(#id37)"><g clip-path="url(#id38)"><path fill="#392e6e" d="M 59.640625 62.101562 C 59.613281 62.183594 59.578125 62.261719 59.527344 62.335938 L 55.277344 68.683594 C 55.128906 68.902344 54.902344 69.050781 54.640625 69.101562 C 54.375 69.15625 54.105469 69.101562 53.878906 68.953125 L 44.757812 62.960938 C 44.289062 62.65625 44.160156 62.039062 44.464844 61.582031 C 44.769531 61.125 45.394531 61.003906 45.863281 61.3125 L 54.140625 66.746094 L 57.839844 61.226562 C 58.144531 60.769531 58.769531 60.648438 59.234375 60.957031 C 59.625 61.210938 59.78125 61.6875 59.640625 62.101562 Z M 59.640625 62.101562 " fill-opacity="1" fill-rule="nonzero"/></g></g></g></g><g clip-path="url(#id39)"><g clip-path="url(#id40)"><g clip-path="url(#id41)"><g clip-path="url(#id42)"><path fill="#2b2256" d="M 64.273438 48.300781 C 64.132812 48.714844 63.722656 49 63.257812 48.96875 C 62.703125 48.933594 62.277344 48.457031 62.308594 47.910156 L 62.6875 41.277344 L 52.804688 40.621094 C 52.25 40.582031 51.824219 40.109375 51.855469 39.558594 C 51.886719 39.011719 52.363281 38.597656 52.917969 38.636719 L 63.808594 39.359375 C 64.078125 39.378906 64.328125 39.5 64.503906 39.699219 C 64.683594 39.894531 64.773438 40.15625 64.757812 40.417969 L 64.320312 48.042969 C 64.316406 48.132812 64.300781 48.21875 64.273438 48.300781 Z M 64.273438 48.300781 " fill-opacity="1" fill-rule="nonzero"/></g></g></g></g><g clip-path="url(#id43)"><g clip-path="url(#id44)"><g clip-path="url(#id45)"><g clip-path="url(#id46)"><path fill="#2b2256" d="M 72.722656 58.8125 C 71.148438 63.5 65.441406 65.828125 60 64 C 54.558594 62.175781 51.410156 56.875 52.980469 52.191406 C 54.554688 47.503906 60.261719 45.175781 65.703125 47 C 71.144531 48.828125 74.292969 54.125 72.722656 58.8125 Z M 72.722656 58.8125 " fill-opacity="1" fill-rule="nonzero"/></g></g></g></g><g clip-path="url(#id47)"><g clip-path="url(#id48)"><g clip-path="url(#id49)"><g clip-path="url(#id50)"><path fill="#001035" d="M 52.980469 52.191406 L 72.722656 58.8125 C 74.292969 54.125 71.144531 48.828125 65.703125 47 C 60.261719 45.175781 54.554688 47.503906 52.980469 52.191406 Z M 52.980469 52.191406 " fill-opacity="1" fill-rule="nonzero"/></g></g></g></g><g clip-path="url(#id51)"><g clip-path="url(#id52)"><g clip-path="url(#id53)"><g clip-path="url(#id54)"><path fill="#ff7d47" d="M 59.664062 53.246094 L 59.597656 53.4375 C 59.089844 53.304688 58.558594 53.578125 58.390625 54.074219 C 58.222656 54.574219 58.480469 55.113281 58.96875 55.3125 L 58.90625 55.503906 C 58.730469 56.023438 59.019531 56.589844 59.546875 56.765625 C 60.078125 56.945312 60.648438 56.667969 60.824219 56.148438 L 60.886719 55.960938 L 62.097656 56.367188 C 62.628906 56.542969 63.199219 56.265625 63.375 55.746094 C 63.546875 55.226562 63.261719 54.664062 62.730469 54.484375 L 61.515625 54.078125 L 61.582031 53.890625 C 61.753906 53.371094 61.46875 52.804688 60.9375 52.628906 C 60.410156 52.449219 59.839844 52.726562 59.664062 53.246094 Z M 59.664062 53.246094 " fill-opacity="1" fill-rule="nonzero"/></g></g></g></g><g clip-path="url(#id55)"><g clip-path="url(#id56)"><g clip-path="url(#id57)"><g clip-path="url(#id58)"><path fill="#ff405c" d="M 59.664062 53.246094 L 59.597656 53.4375 C 59.113281 53.308594 58.605469 53.554688 58.414062 54.011719 L 63.390625 55.683594 C 63.523438 55.179688 63.238281 54.65625 62.730469 54.484375 L 61.515625 54.078125 L 61.582031 53.890625 C 61.753906 53.371094 61.464844 52.804688 60.9375 52.628906 C 60.410156 52.449219 59.839844 52.726562 59.664062 53.246094 Z M 59.664062 53.246094 " fill-opacity="1" fill-rule="nonzero"/></g></g></g></g></svg>